thinwide.ufo
<glyph name="exclam" format="1">
  <advance width="149"/>
  <unicode hex="0021"/>
  <outline>
    <contour>
      <point x="89" y="18"/>
      <point x="60" y="18"/>
      <point x="89" y="18" type="curve"/>
      <point x="89" y="27"/>
      <point x="82" y="32"/>
      <point x="72" y="32" type="curve"/>
      <point x="64" y="32"/>
      <point x="60" y="26"/>
      <point x="60" y="18" type="curve"/>
      <point x="89" y="18"/>
      <point x="60" y="18"/>
      <point x="89" y="18" type="curve"/>
      <point x="89" y="9"/>
      <point x="82" y="5"/>
      <point x="72" y="5" type="curve"/>
      <point x="64" y="5"/>
      <point x="60" y="10"/>
      <point x="60" y="18" type="curve"/>
    </contour>
    <contour>
      <point x="84" y="229"/>
      <point x="60" y="229"/>
      <point x="84" y="229" type="curve"/>
      <point x="84" y="393"/>
      <point x="84" y="558"/>
      <point x="84" y="722" type="curve"/>
      <point x="60" y="722"/>
      <point x="84" y="722"/>
      <point x="60" y="722" type="curve"/>
      <point x="60" y="558"/>
      <point x="60" y="393"/>
      <point x="60" y="229" type="curve"/>
    </contour>
  </outline>
</glyph>
<glyph name="quotedbl" format="1">
  <advance width="395"/>
  <unicode hex="0022"/>
  <outline>
    <contour>
      <point x="84" y="658"/>
      <point x="60" y="658"/>
      <point x="84" y="658" type="curve"/>
      <point x="84" y="721"/>
      <point x="84" y="783"/>
      <point x="84" y="846" type="curve"/>
      <point x="60" y="846"/>
      <point x="84" y="846"/>
      <point x="60" y="846" type="curve"/>
      <point x="60" y="783"/>
      <point x="60" y="721"/>
      <point x="60" y="658" type="curve"/>
    </contour>
    <contour>
      <point x="335" y="658"/>
      <point x="312" y="658"/>
      <point x="335" y="658" type="curve"/>
      <point x="335" y="721"/>
      <point x="335" y="783"/>
      <point x="335" y="846" type="curve"/>
      <point x="312" y="846"/>
      <point x="335" y="846"/>
      <point x="312" y="846" type="curve"/>
      <point x="312" y="783"/>
      <point x="312" y="721"/>
      <point x="312" y="658" type="curve"/>
    </contour>
  </outline>
</glyph>
<glyph name="dollar" format="1">
  <advance width="687"/>
  <unicode hex="0024"/>
  <outline>
    <contour>
      <point x="82" y="99"/>
      <point x="60" y="99"/>
      <point x="82" y="99" type="curve"/>
      <point x="82" y="99"/>
      <point x="82" y="99"/>
      <point x="82" y="99" type="curve"/>
      <point x="60" y="99"/>
      <point x="82" y="99"/>
      <point x="60" y="99" type="curve"/>
      <point x="60" y="99"/>
      <point x="60" y="99"/>
      <point x="60" y="99" type="curve"/>
    </contour>
    <contour>
      <point x="584" y="631"/>
      <point x="606" y="631"/>
      <point x="584" y="631" type="curve"/>
      <point x="584" y="631"/>
      <point x="584" y="631"/>
      <point x="584" y="631" type="curve"/>
      <point x="606" y="631"/>
      <point x="584" y="631"/>
      <point x="606" y="631" type="curve"/>
      <point x="606" y="631"/>
      <point x="606" y="631"/>
      <point x="606" y="631" type="curve"/>
    </contour>
    <contour>
      <point x="336" y="-43"/>
      <point x="312" y="-43"/>
      <point x="336" y="-43" type="curve"/>
      <point x="336" y="-9"/>
      <point x="336" y="25"/>
      <point x="336" y="59" type="curve"/>
      <point x="312" y="59"/>
      <point x="336" y="59"/>
      <point x="312" y="59" type="curve"/>
      <point x="312" y="25"/>
      <point x="312" y="-9"/>
      <point x="312" y="-43" type="curve"/>
    </contour>
    <contour>
      <point x="352" y="671"/>
      <point x="328" y="671"/>
      <point x="352" y="671" type="curve"/>
      <point x="352" y="705"/>
      <point x="352" y="739"/>
      <point x="352" y="773" type="curve"/>
      <point x="328" y="773"/>
      <point x="352" y="773"/>
      <point x="328" y="773" type="curve"/>
      <point x="328" y="739"/>
      <point x="328" y="705"/>
      <point x="328" y="671" type="curve"/>
    </contour>
    <contour>
      <point x="62" y="99"/>
      <point x="75" y="118"/>
      <point x="62" y="99" type="curve"/>
      <point x="137" y="71"/>
      <point x="224" y="48"/>
      <point x="323" y="48" type="curve"/>
      <point x="484" y="48"/>
      <point x="626" y="73"/>
      <point x="626" y="198" type="curve"/>
      <point x="626" y="320"/>
      <point x="486" y="342"/>
      <point x="351" y="385" type="curve"/>
      <point x="231" y="423"/>
      <point x="121" y="436"/>
      <point x="121" y="543" type="curve"/>
      <point x="121" y="639"/>
      <point x="225" y="662"/>
      <point x="347" y="662" type="curve"/>
      <point x="441" y="662"/>
      <point x="508" y="647"/>
      <point x="594" y="613" type="curve"/>
      <point x="606" y="631"/>
      <point x="594" y="613"/>
      <point x="606" y="631" type="curve"/>
      <point x="517" y="666"/>
      <point x="447" y="683"/>
      <point x="348" y="683" type="curve"/>
      <point x="211" y="683"/>
      <point x="97" y="651"/>
      <point x="97" y="543" type="curve"/>
      <point x="97" y="429"/>
      <point x="210" y="405"/>
      <point x="336" y="365" type="curve"/>
      <point x="465" y="326"/>
      <point x="602" y="313"/>
      <point x="602" y="197" type="curve"/>
      <point x="602" y="82"/>
      <point x="472" y="69"/>
      <point x="325" y="69" type="curve"/>
      <point x="231" y="69"/>
      <point x="146" y="93"/>
      <point x="75" y="118" type="curve"/>
    </contour>
  </outline>
</glyph>
<glyph name="parenleft" format="1">
  <advance width="464"/>
  <unicode hex="0028"/>
  <outline>
    <contour>
      <point x="404" y="-235"/>
      <point x="390" y="-251"/>
      <point x="404" y="-235" type="curve"/>
      <point x="199" y="-86"/>
      <point x="85" y="73"/>
      <point x="85" y="326" type="curve"/>
      <point x="85" y="578"/>
      <point x="200" y="735"/>
      <point x="402" y="888" type="curve"/>
      <point x="388" y="903"/>
      <point x="402" y="888"/>
      <point x="388" y="903" type="curve"/>
      <point x="177" y="749"/>
      <point x="60" y="586"/>
      <point x="60" y="326" type="curve"/>
      <point x="60" y="66"/>
      <point x="178" y="-96"/>
      <point x="390" y="-251" type="curve"/>
    </contour>
  </outline>
</glyph>
<glyph name="hyphen" format="1">
  <advance width="513"/>
  <unicode hex="002D"/>
  <outline>
    <contour>
      <point x="60" y="260"/>
      <point x="60" y="284"/>
      <point x="60" y="260" type="curve"/>
      <point x="191" y="260"/>
      <point x="322" y="260"/>
      <point x="453" y="260" type="curve"/>
      <point x="453" y="284"/>
      <point x="453" y="260"/>
      <point x="453" y="284" type="curve"/>
      <point x="322" y="284"/>
      <point x="191" y="284"/>
      <point x="60" y="284" type="curve"/>
    </contour>
  </outline>
</glyph>
<glyph name="slash" format="1">
  <advance width="720"/>
  <unicode hex="002F"/>
  <outline>
    <contour>
      <point x="84" y="-68"/>
      <point x="60" y="-68"/>
      <point x="84" y="-68" type="curve"/>
      <point x="276" y="236"/>
      <point x="468" y="540"/>
      <point x="659" y="844" type="curve"/>
      <point x="635" y="844"/>
      <point x="659" y="844"/>
      <point x="635" y="844" type="curve"/>
      <point x="443" y="540"/>
      <point x="252" y="236"/>
      <point x="60" y="-68" type="curve"/>
    </contour>
  </outline>
</glyph>
<glyph name="equal" format="1">
  <advance width="970"/>
  <unicode hex="003D"/>
  <outline>
    <contour>
      <point x="60" y="206"/>
      <point x="60" y="229"/>
      <point x="60" y="206" type="curve"/>
      <point x="343" y="206"/>
      <point x="626" y="206"/>
      <point x="909" y="206" type="curve"/>
      <point x="909" y="229"/>
      <point x="909" y="206"/>
      <point x="909" y="229" type="curve"/>
      <point x="626" y="229"/>
      <point x="343" y="229"/>
      <point x="60" y="229" type="curve"/>
    </contour>
    <contour>
      <point x="60" y="428"/>
      <point x="60" y="451"/>
      <point x="60" y="428" type="curve"/>
      <point x="343" y="428"/>
      <point x="626" y="428"/>
      <point x="909" y="428" type="curve"/>
      <point x="909" y="451"/>
      <point x="909" y="428"/>
      <point x="909" y="451" type="curve"/>
      <point x="626" y="451"/>
      <point x="343" y="451"/>
      <point x="60" y="451" type="curve"/>
    </contour>
  </outline>
</glyph>
<glyph name="A" format="1">
  <advance width="917"/>
  <unicode hex="0041"/>
  <outline>
    <contour>
      <point x="89" y="22"/>
      <point x="89" y="0"/>
      <point x="89" y="22" type="curve"/>
      <point x="89" y="22"/>
      <point x="89" y="22"/>
      <point x="89" y="22" type="curve"/>
      <point x="89" y="0"/>
      <point x="89" y="22"/>
      <point x="89" y="0" type="curve"/>
      <point x="89" y="0"/>
      <point x="89" y="0"/>
      <point x="89" y="0" type="curve"/>
    </contour>
    <contour>
      <point x="79" y="0"/>
      <point x="79" y="22"/>
      <point x="79" y="0" type="curve"/>
      <point x="148" y="0"/>
      <point x="-123" y="0"/>
      <point x="82" y="0" type="curve"/>
      <point x="82" y="22"/>
      <point x="82" y="0"/>
      <point x="82" y="22" type="curve"/>
      <point x="-123" y="22"/>
      <point x="284" y="22"/>
      <point x="79" y="22" type="curve"/>
    </contour>
    <contour>
      <point x="828" y="0"/>
      <point x="828" y="22"/>
      <point x="828" y="0" type="curve"/>
      <point x="828" y="0"/>
      <point x="838" y="0"/>
      <point x="838" y="0" type="curve"/>
      <point x="838" y="22"/>
      <point x="838" y="0"/>
      <point x="838" y="22" type="curve"/>
      <point x="838" y="22"/>
      <point x="828" y="22"/>
      <point x="828" y="22" type="curve"/>
    </contour>
    <contour>
      <point x="828" y="22"/>
      <point x="828" y="0"/>
      <point x="828" y="22" type="curve"/>
      <point x="623" y="22"/>
      <point x="1042" y="22"/>
      <point x="837" y="22" type="curve"/>
      <point x="837" y="0"/>
      <point x="837" y="22"/>
      <point x="837" y="0" type="curve"/>
      <point x="905" y="0"/>
      <point x="760" y="0"/>
      <point x="828" y="0" type="curve"/>
    </contour>
    <contour>
      <point x="707" y="277"/>
      <point x="715" y="254"/>
      <point x="707" y="277" type="curve"/>
      <point x="549" y="277"/>
      <point x="390" y="277"/>
      <point x="231" y="277" type="curve"/>
      <point x="221" y="254"/>
      <point x="231" y="277"/>
      <point x="221" y="254" type="curve"/>
      <point x="386" y="254"/>
      <point x="550" y="254"/>
      <point x="715" y="254" type="curve"/>
    </contour>
    <contour>
      <point x="856" y="0"/>
      <point x="831" y="0"/>
      <point x="856" y="0" type="curve"/>
      <point x="735" y="241"/>
      <point x="613" y="481"/>
      <point x="492" y="722" type="curve"/>
      <point x="470" y="722"/>
      <point x="492" y="722"/>
      <point x="470" y="722" type="curve"/>
      <point x="590" y="481"/>
      <point x="710" y="241"/>
      <point x="831" y="0" type="curve"/>
    </contour>
    <contour>
      <point x="86" y="0"/>
      <point x="60" y="0"/>
      <point x="86" y="0" type="curve"/>
      <point x="221" y="241"/>
      <point x="355" y="481"/>
      <point x="489" y="722" type="curve"/>
      <point x="467" y="722"/>
      <point x="489" y="722"/>
      <point x="467" y="722" type="curve"/>
      <point x="331" y="481"/>
      <point x="196" y="241"/>
      <point x="60" y="0" type="curve"/>
    </contour>
  </outline>
</glyph>
<glyph name="B" format="1">
  <advance width="685"/>
  <unicode hex="0042"/>
  <outline>
    <contour>
      <point x="75" y="722"/>
      <point x="75" y="700"/>
      <point x="75" y="722" type="curve"/>
      <point x="75" y="722"/>
      <point x="75" y="722"/>
      <point x="75" y="722" type="curve"/>
      <point x="75" y="700"/>
      <point x="75" y="722"/>
      <point x="75" y="700" type="curve"/>
      <point x="75" y="700"/>
      <point x="75" y="700"/>
      <point x="75" y="700" type="curve"/>
    </contour>
    <contour>
      <point x="73" y="22"/>
      <point x="73" y="0"/>
      <point x="73" y="22" type="curve"/>
      <point x="73" y="22"/>
      <point x="73" y="22"/>
      <point x="73" y="22" type="curve"/>
      <point x="73" y="0"/>
      <point x="73" y="22"/>
      <point x="73" y="0" type="curve"/>
      <point x="73" y="0"/>
      <point x="73" y="0"/>
      <point x="73" y="0" type="curve"/>
    </contour>
    <contour>
      <point x="60" y="700"/>
      <point x="60" y="722"/>
      <point x="60" y="700" type="curve"/>
      <point x="157" y="700"/>
      <point x="254" y="700"/>
      <point x="352" y="700" type="curve"/>
      <point x="456" y="700"/>
      <point x="538" y="656"/>
      <point x="538" y="555" type="curve"/>
      <point x="538" y="447"/>
      <point x="414" y="421"/>
      <point x="293" y="421" type="curve"/>
      <point x="216" y="421"/>
      <point x="138" y="421"/>
      <point x="60" y="421" type="curve"/>
      <point x="60" y="399"/>
      <point x="60" y="421"/>
      <point x="60" y="399" type="curve"/>
      <point x="134" y="399"/>
      <point x="208" y="399"/>
      <point x="281" y="399" type="curve"/>
      <point x="422" y="399"/>
      <point x="562" y="430"/>
      <point x="562" y="555" type="curve"/>
      <point x="562" y="669"/>
      <point x="474" y="722"/>
      <point x="352" y="722" type="curve"/>
      <point x="254" y="722"/>
      <point x="157" y="722"/>
      <point x="60" y="722" type="curve"/>
    </contour>
    <contour>
      <point x="88" y="0"/>
      <point x="63" y="0"/>
      <point x="88" y="0" type="curve"/>
      <point x="88" y="241"/>
      <point x="88" y="481"/>
      <point x="88" y="722" type="curve"/>
      <point x="63" y="722"/>
      <point x="88" y="722"/>
      <point x="63" y="722" type="curve"/>
      <point x="63" y="481"/>
      <point x="63" y="241"/>
      <point x="63" y="0" type="curve"/>
    </contour>
    <contour>
      <point x="60" y="399"/>
      <point x="60" y="421"/>
      <point x="60" y="399" type="curve"/>
      <point x="138" y="399"/>
      <point x="216" y="399"/>
      <point x="293" y="399" type="curve"/>
      <point x="459" y="399"/>
      <point x="601" y="355"/>
      <point x="601" y="204" type="curve"/>
      <point x="601" y="73"/>
      <point x="495" y="22"/>
      <point x="349" y="22" type="curve"/>
      <point x="253" y="22"/>
      <point x="156" y="22"/>
      <point x="60" y="22" type="curve"/>
      <point x="60" y="0"/>
      <point x="60" y="22"/>
      <point x="60" y="0" type="curve"/>
      <point x="156" y="0"/>
      <point x="253" y="0"/>
      <point x="349" y="0" type="curve"/>
      <point x="510" y="0"/>
      <point x="626" y="59"/>
      <point x="626" y="204" type="curve"/>
      <point x="626" y="372"/>
      <point x="466" y="421"/>
      <point x="281" y="421" type="curve"/>
      <point x="208" y="421"/>
      <point x="134" y="421"/>
      <point x="60" y="421" type="curve"/>
    </contour>
  </outline>
</glyph>
<glyph name="C" format="1">
  <advance width="878"/>
  <unicode hex="0043"/>
  <outline>
    <contour>
      <point x="771" y="655"/>
      <point x="793" y="655"/>
      <point x="771" y="655" type="curve"/>
      <point x="771" y="655"/>
      <point x="771" y="655"/>
      <point x="771" y="655" type="curve"/>
      <point x="793" y="655"/>
      <point x="771" y="655"/>
      <point x="793" y="655" type="curve"/>
      <point x="793" y="655"/>
      <point x="793" y="655"/>
      <point x="793" y="655" type="curve"/>
    </contour>
    <contour>
      <point x="793" y="655"/>
      <point x="780" y="638"/>
      <point x="793" y="655" type="curve"/>
      <point x="700" y="697"/>
      <point x="601" y="727"/>
      <point x="490" y="727" type="curve"/>
      <point x="232" y="727"/>
      <point x="60" y="594"/>
      <point x="60" y="344" type="curve"/>
      <point x="60" y="113"/>
      <point x="221" y="-5"/>
      <point x="462" y="-5" type="curve"/>
      <point x="605" y="-5"/>
      <point x="699" y="25"/>
      <point x="818" y="96" type="curve"/>
      <point x="803" y="113"/>
      <point x="818" y="96"/>
      <point x="803" y="113" type="curve"/>
      <point x="691" y="43"/>
      <point x="598" y="22"/>
      <point x="463" y="22" type="curve"/>
      <point x="238" y="22"/>
      <point x="84" y="130"/>
      <point x="84" y="345" type="curve"/>
      <point x="84" y="578"/>
      <point x="248" y="700"/>
      <point x="489" y="700" type="curve"/>
      <point x="595" y="700"/>
      <point x="692" y="680"/>
      <point x="780" y="638" type="curve"/>
    </contour>
  </outline>
</glyph>
<glyph name="D" format="1">
  <advance width="826"/>
  <unicode hex="0044"/>
  <outline>
    <contour>
      <point x="75" y="22"/>
      <point x="75" y="0"/>
      <point x="75" y="22" type="curve"/>
      <point x="75" y="22"/>
      <point x="75" y="22"/>
      <point x="75" y="22" type="curve"/>
      <point x="75" y="0"/>
      <point x="75" y="22"/>
      <point x="75" y="0" type="curve"/>
      <point x="75" y="0"/>
      <point x="75" y="0"/>
      <point x="75" y="0" type="curve"/>
    </contour>
    <contour>
      <point x="75" y="722"/>
      <point x="75" y="700"/>
      <point x="75" y="722" type="curve"/>
      <point x="75" y="722"/>
      <point x="75" y="722"/>
      <point x="75" y="722" type="curve"/>
      <point x="75" y="700"/>
      <point x="75" y="722"/>
      <point x="75" y="700" type="curve"/>
      <point x="75" y="700"/>
      <point x="75" y="700"/>
      <point x="75" y="700" type="curve"/>
    </contour>
    <contour>
      <point x="60" y="722"/>
      <point x="84" y="722"/>
      <point x="60" y="722" type="curve"/>
      <point x="60" y="481"/>
      <point x="60" y="241"/>
      <point x="60" y="0" type="curve"/>
      <point x="84" y="0"/>
      <point x="60" y="0"/>
      <point x="84" y="0" type="curve"/>
      <point x="84" y="241"/>
      <point x="84" y="481"/>
      <point x="84" y="722" type="curve"/>
    </contour>
    <contour>
      <point x="75" y="0"/>
      <point x="75" y="22"/>
      <point x="75" y="0" type="curve"/>
      <point x="165" y="0"/>
      <point x="255" y="0"/>
      <point x="345" y="0" type="curve"/>
      <point x="604" y="0"/>
      <point x="766" y="106"/>
      <point x="766" y="350" type="curve"/>
      <point x="766" y="608"/>
      <point x="599" y="722"/>
      <point x="327" y="722" type="curve"/>
      <point x="243" y="722"/>
      <point x="159" y="722"/>
      <point x="75" y="722" type="curve"/>
      <point x="75" y="700"/>
      <point x="75" y="722"/>
      <point x="75" y="700" type="curve"/>
      <point x="159" y="700"/>
      <point x="242" y="700"/>
      <point x="326" y="700" type="curve"/>
      <point x="584" y="700"/>
      <point x="742" y="592"/>
      <point x="742" y="349" type="curve"/>
      <point x="742" y="120"/>
      <point x="591" y="22"/>
      <point x="347" y="22" type="curve"/>
      <point x="256" y="22"/>
      <point x="166" y="22"/>
      <point x="75" y="22" type="curve"/>
    </contour>
  </outline>
</glyph>
<glyph name="E" format="1">
  <advance width="715"/>
  <unicode hex="0045"/>
  <outline>
    <contour>
      <point x="501" y="374"/>
      <point x="523" y="374"/>
      <point x="501" y="374" type="curve"/>
      <point x="501" y="374"/>
      <point x="501" y="374"/>
      <point x="501" y="374" type="curve"/>
      <point x="523" y="374"/>
      <point x="501" y="374"/>
      <point x="523" y="374" type="curve"/>
      <point x="523" y="374"/>
      <point x="523" y="374"/>
      <point x="523" y="374" type="curve"/>
    </contour>
    <contour>
      <point x="523" y="374"/>
      <point x="501" y="374"/>
      <point x="523" y="374" type="curve"/>
      <point x="523" y="374"/>
      <point x="523" y="374"/>
      <point x="523" y="374" type="curve"/>
      <point x="501" y="374"/>
      <point x="523" y="374"/>
      <point x="501" y="374" type="curve"/>
      <point x="501" y="374"/>
      <point x="501" y="374"/>
      <point x="501" y="374" type="curve"/>
    </contour>
    <contour>
      <point x="654" y="11"/>
      <point x="632" y="11"/>
      <point x="654" y="11" type="curve"/>
      <point x="654" y="11"/>
      <point x="654" y="11"/>
      <point x="654" y="11" type="curve"/>
      <point x="632" y="11"/>
      <point x="654" y="11"/>
      <point x="632" y="11" type="curve"/>
      <point x="632" y="11"/>
      <point x="632" y="11"/>
      <point x="632" y="11" type="curve"/>
    </contour>
    <contour>
      <point x="586" y="711"/>
      <point x="608" y="711"/>
      <point x="586" y="711" type="curve"/>
      <point x="586" y="711"/>
      <point x="586" y="711"/>
      <point x="586" y="711" type="curve"/>
      <point x="608" y="711"/>
      <point x="586" y="711"/>
      <point x="608" y="711" type="curve"/>
      <point x="608" y="711"/>
      <point x="608" y="711"/>
      <point x="608" y="711" type="curve"/>
    </contour>
    <contour>
      <point x="76" y="22"/>
      <point x="76" y="0"/>
      <point x="76" y="22" type="curve"/>
      <point x="76" y="22"/>
      <point x="76" y="22"/>
      <point x="76" y="22" type="curve"/>
      <point x="76" y="0"/>
      <point x="76" y="22"/>
      <point x="76" y="0" type="curve"/>
      <point x="76" y="0"/>
      <point x="76" y="0"/>
      <point x="76" y="0" type="curve"/>
    </contour>
    <contour>
      <point x="76" y="722"/>
      <point x="76" y="700"/>
      <point x="76" y="722" type="curve"/>
      <point x="76" y="722"/>
      <point x="76" y="722"/>
      <point x="76" y="722" type="curve"/>
      <point x="76" y="700"/>
      <point x="76" y="722"/>
      <point x="76" y="700" type="curve"/>
      <point x="76" y="700"/>
      <point x="76" y="700"/>
      <point x="76" y="700" type="curve"/>
    </contour>
    <contour>
      <point x="80" y="363"/>
      <point x="80" y="385"/>
      <point x="80" y="363" type="curve"/>
      <point x="228" y="363"/>
      <point x="375" y="363"/>
      <point x="523" y="363" type="curve"/>
      <point x="523" y="385"/>
      <point x="523" y="363"/>
      <point x="523" y="385" type="curve"/>
      <point x="375" y="385"/>
      <point x="228" y="385"/>
      <point x="80" y="385" type="curve"/>
    </contour>
    <contour>
      <point x="60" y="700"/>
      <point x="60" y="722"/>
      <point x="60" y="700" type="curve"/>
      <point x="243" y="700"/>
      <point x="425" y="700"/>
      <point x="608" y="700" type="curve"/>
      <point x="608" y="722"/>
      <point x="608" y="700"/>
      <point x="608" y="722" type="curve"/>
      <point x="425" y="722"/>
      <point x="243" y="722"/>
      <point x="60" y="722" type="curve"/>
    </contour>
    <contour>
      <point x="87" y="0"/>
      <point x="63" y="0"/>
      <point x="87" y="0" type="curve"/>
      <point x="87" y="0"/>
      <point x="87" y="722"/>
      <point x="87" y="722" type="curve"/>
      <point x="63" y="722"/>
      <point x="87" y="722"/>
      <point x="63" y="722" type="curve"/>
      <point x="63" y="481"/>
      <point x="63" y="241"/>
      <point x="63" y="0" type="curve"/>
    </contour>
    <contour>
      <point x="60" y="0"/>
      <point x="60" y="22"/>
      <point x="60" y="0" type="curve"/>
      <point x="258" y="0"/>
      <point x="456" y="0"/>
      <point x="654" y="0" type="curve"/>
      <point x="654" y="22"/>
      <point x="654" y="0"/>
      <point x="654" y="22" type="curve"/>
      <point x="456" y="22"/>
      <point x="258" y="22"/>
      <point x="60" y="22" type="curve"/>
    </contour>
  </outline>
</glyph>
<glyph name="H" format="1">
  <advance width="826"/>
  <unicode hex="0048"/>
  <outline>
    <contour>
      <point x="755" y="700"/>
      <point x="755" y="722"/>
      <point x="755" y="700" type="curve"/>
      <point x="755" y="700"/>
      <point x="755" y="700"/>
      <point x="755" y="700" type="curve"/>
      <point x="755" y="722"/>
      <point x="755" y="700"/>
      <point x="755" y="722" type="curve"/>
      <point x="755" y="722"/>
      <point x="755" y="722"/>
      <point x="755" y="722" type="curve"/>
    </contour>
    <contour>
      <point x="755" y="0"/>
      <point x="755" y="22"/>
      <point x="755" y="0" type="curve"/>
      <point x="755" y="0"/>
      <point x="755" y="0"/>
      <point x="755" y="0" type="curve"/>
      <point x="755" y="22"/>
      <point x="755" y="0"/>
      <point x="755" y="22" type="curve"/>
      <point x="755" y="22"/>
      <point x="755" y="22"/>
      <point x="755" y="22" type="curve"/>
    </contour>
    <contour>
      <point x="755" y="22"/>
      <point x="755" y="0"/>
      <point x="755" y="22" type="curve"/>
      <point x="755" y="22"/>
      <point x="755" y="22"/>
      <point x="755" y="22" type="curve"/>
      <point x="755" y="0"/>
      <point x="755" y="22"/>
      <point x="755" y="0" type="curve"/>
      <point x="755" y="0"/>
      <point x="755" y="0"/>
      <point x="755" y="0" type="curve"/>
    </contour>
    <contour>
      <point x="755" y="722"/>
      <point x="755" y="700"/>
      <point x="755" y="722" type="curve"/>
      <point x="755" y="722"/>
      <point x="755" y="722"/>
      <point x="755" y="722" type="curve"/>
      <point x="755" y="700"/>
      <point x="755" y="722"/>
      <point x="755" y="700" type="curve"/>
      <point x="755" y="700"/>
      <point x="755" y="700"/>
      <point x="755" y="700" type="curve"/>
    </contour>
    <contour>
      <point x="72" y="700"/>
      <point x="72" y="722"/>
      <point x="72" y="700" type="curve"/>
      <point x="72" y="700"/>
      <point x="72" y="700"/>
      <point x="72" y="700" type="curve"/>
      <point x="72" y="722"/>
      <point x="72" y="700"/>
      <point x="72" y="722" type="curve"/>
      <point x="72" y="722"/>
      <point x="72" y="722"/>
      <point x="72" y="722" type="curve"/>
    </contour>
    <contour>
      <point x="72" y="722"/>
      <point x="72" y="700"/>
      <point x="72" y="722" type="curve"/>
      <point x="72" y="722"/>
      <point x="72" y="722"/>
      <point x="72" y="722" type="curve"/>
      <point x="72" y="700"/>
      <point x="72" y="722"/>
      <point x="72" y="700" type="curve"/>
      <point x="72" y="700"/>
      <point x="72" y="700"/>
      <point x="72" y="700" type="curve"/>
    </contour>
    <contour>
      <point x="72" y="0"/>
      <point x="72" y="22"/>
      <point x="72" y="0" type="curve"/>
      <point x="72" y="0"/>
      <point x="72" y="0"/>
      <point x="72" y="0" type="curve"/>
      <point x="72" y="22"/>
      <point x="72" y="0"/>
      <point x="72" y="22" type="curve"/>
      <point x="72" y="22"/>
      <point x="72" y="22"/>
      <point x="72" y="22" type="curve"/>
    </contour>
    <contour>
      <point x="72" y="22"/>
      <point x="72" y="0"/>
      <point x="72" y="22" type="curve"/>
      <point x="72" y="22"/>
      <point x="72" y="22"/>
      <point x="72" y="22" type="curve"/>
      <point x="72" y="0"/>
      <point x="72" y="22"/>
      <point x="72" y="0" type="curve"/>
      <point x="72" y="0"/>
      <point x="72" y="0"/>
      <point x="72" y="0" type="curve"/>
    </contour>
    <contour>
      <point x="84" y="0"/>
      <point x="60" y="0"/>
      <point x="84" y="0" type="curve"/>
      <point x="84" y="0"/>
      <point x="84" y="722"/>
      <point x="84" y="722" type="curve"/>
      <point x="60" y="722"/>
      <point x="84" y="722"/>
      <point x="60" y="722" type="curve"/>
      <point x="60" y="481"/>
      <point x="60" y="241"/>
      <point x="60" y="0" type="curve"/>
    </contour>
    <contour>
      <point x="751" y="374"/>
      <point x="751" y="352"/>
      <point x="751" y="374" type="curve"/>
      <point x="525" y="374"/>
      <point x="298" y="374"/>
      <point x="72" y="374" type="curve"/>
      <point x="72" y="352"/>
      <point x="72" y="374"/>
      <point x="72" y="352" type="curve"/>
      <point x="298" y="352"/>
      <point x="525" y="352"/>
      <point x="751" y="352" type="curve"/>
    </contour>
    <contour>
      <point x="766" y="1"/>
      <point x="742" y="1"/>
      <point x="766" y="1" type="curve"/>
      <point x="766" y="241"/>
      <point x="766" y="481"/>
      <point x="766" y="721" type="curve"/>
      <point x="742" y="721"/>
      <point x="766" y="721"/>
      <point x="742" y="721" type="curve"/>
      <point x="742" y="721"/>
      <point x="742" y="1"/>
      <point x="742" y="1" type="curve"/>
    </contour>
  </outline>
</glyph>
<glyph name="I" format="1">
  <advance width="145"/>
  <unicode hex="0049"/>
  <outline>
    <contour>
      <point x="73" y="722"/>
      <point x="73" y="700"/>
      <point x="73" y="722" type="curve"/>
      <point x="73" y="722"/>
      <point x="73" y="722"/>
      <point x="73" y="722" type="curve"/>
      <point x="73" y="700"/>
      <point x="73" y="722"/>
      <point x="73" y="700" type="curve"/>
      <point x="73" y="700"/>
      <point x="73" y="700"/>
      <point x="73" y="700" type="curve"/>
    </contour>
    <contour>
      <point x="73" y="700"/>
      <point x="73" y="722"/>
      <point x="73" y="700" type="curve"/>
      <point x="73" y="700"/>
      <point x="73" y="700"/>
      <point x="73" y="700" type="curve"/>
      <point x="73" y="722"/>
      <point x="73" y="700"/>
      <point x="73" y="722" type="curve"/>
      <point x="73" y="722"/>
      <point x="73" y="722"/>
      <point x="73" y="722" type="curve"/>
    </contour>
    <contour>
      <point x="73" y="0"/>
      <point x="73" y="22"/>
      <point x="73" y="0" type="curve"/>
      <point x="73" y="0"/>
      <point x="73" y="0"/>
      <point x="73" y="0" type="curve"/>
      <point x="73" y="22"/>
      <point x="73" y="0"/>
      <point x="73" y="22" type="curve"/>
      <point x="73" y="22"/>
      <point x="73" y="22"/>
      <point x="73" y="22" type="curve"/>
    </contour>
    <contour>
      <point x="73" y="22"/>
      <point x="73" y="0"/>
      <point x="73" y="22" type="curve"/>
      <point x="73" y="22"/>
      <point x="73" y="22"/>
      <point x="73" y="22" type="curve"/>
      <point x="73" y="0"/>
      <point x="73" y="22"/>
      <point x="73" y="0" type="curve"/>
      <point x="73" y="0"/>
      <point x="73" y="0"/>
      <point x="73" y="0" type="curve"/>
    </contour>
    <contour>
      <point x="84" y="0"/>
      <point x="60" y="0"/>
      <point x="84" y="0" type="curve"/>
      <point x="84" y="241"/>
      <point x="84" y="481"/>
      <point x="84" y="722" type="curve"/>
      <point x="60" y="722"/>
      <point x="84" y="722"/>
      <point x="60" y="722" type="curve"/>
      <point x="60" y="481"/>
      <point x="60" y="241"/>
      <point x="60" y="0" type="curve"/>
    </contour>
  </outline>
</glyph>
<glyph name="J" format="1">
  <advance width="523"/>
  <unicode hex="004A"/>
  <outline>
    <contour>
      <point x="452" y="722"/>
      <point x="452" y="700"/>
      <point x="452" y="722" type="curve"/>
      <point x="452" y="722"/>
      <point x="452" y="722"/>
      <point x="452" y="722" type="curve"/>
      <point x="452" y="700"/>
      <point x="452" y="722"/>
      <point x="452" y="700" type="curve"/>
      <point x="452" y="700"/>
      <point x="452" y="700"/>
      <point x="452" y="700" type="curve"/>
    </contour>
    <contour>
      <point x="452" y="700"/>
      <point x="452" y="722"/>
      <point x="452" y="700" type="curve"/>
      <point x="452" y="700"/>
      <point x="452" y="700"/>
      <point x="452" y="700" type="curve"/>
      <point x="452" y="722"/>
      <point x="452" y="700"/>
      <point x="452" y="722" type="curve"/>
      <point x="452" y="722"/>
      <point x="452" y="722"/>
      <point x="452" y="722" type="curve"/>
    </contour>
    <contour>
      <point x="60" y="43"/>
      <point x="71" y="60"/>
      <point x="60" y="43" type="curve"/>
      <point x="98" y="23"/>
      <point x="152" y="0"/>
      <point x="217" y="0" type="curve"/>
      <point x="367" y="0"/>
      <point x="462" y="75"/>
      <point x="462" y="219" type="curve"/>
      <point x="462" y="386"/>
      <point x="462" y="554"/>
      <point x="462" y="722" type="curve"/>
      <point x="438" y="722"/>
      <point x="462" y="722"/>
      <point x="438" y="722" type="curve"/>
      <point x="438" y="554"/>
      <point x="438" y="386"/>
      <point x="438" y="219" type="curve"/>
      <point x="438" y="90"/>
      <point x="351" y="22"/>
      <point x="217" y="22" type="curve"/>
      <point x="159" y="22"/>
      <point x="120" y="39"/>
      <point x="71" y="60" type="curve"/>
    </contour>
  </outline>
</glyph>
<glyph name="M" format="1">
  <advance width="1074"/>
  <unicode hex="004D"/>
  <outline>
    <contour>
      <point x="1004" y="0"/>
      <point x="1004" y="22"/>
      <point x="1004" y="0" type="curve"/>
      <point x="1004" y="0"/>
      <point x="1004" y="0"/>
      <point x="1004" y="0" type="curve"/>
      <point x="1004" y="22"/>
      <point x="1004" y="0"/>
      <point x="1004" y="22" type="curve"/>
      <point x="1004" y="22"/>
      <point x="1004" y="22"/>
      <point x="1004" y="22" type="curve"/>
    </contour>
    <contour>
      <point x="1004" y="22"/>
      <point x="1004" y="0"/>
      <point x="1004" y="22" type="curve"/>
      <point x="1004" y="22"/>
      <point x="1004" y="22"/>
      <point x="1004" y="22" type="curve"/>
      <point x="1004" y="0"/>
      <point x="1004" y="22"/>
      <point x="1004" y="0" type="curve"/>
      <point x="1004" y="0"/>
      <point x="1004" y="0"/>
      <point x="1004" y="0" type="curve"/>
    </contour>
    <contour>
      <point x="73" y="22"/>
      <point x="73" y="0"/>
      <point x="73" y="22" type="curve"/>
      <point x="73" y="22"/>
      <point x="73" y="22"/>
      <point x="73" y="22" type="curve"/>
      <point x="73" y="0"/>
      <point x="73" y="22"/>
      <point x="73" y="0" type="curve"/>
      <point x="73" y="0"/>
      <point x="73" y="0"/>
      <point x="73" y="0" type="curve"/>
    </contour>
    <contour>
      <point x="153" y="722"/>
      <point x="153" y="700"/>
      <point x="153" y="722" type="curve"/>
      <point x="153" y="722"/>
      <point x="153" y="722"/>
      <point x="153" y="722" type="curve"/>
      <point x="153" y="700"/>
      <point x="153" y="722"/>
      <point x="153" y="700" type="curve"/>
      <point x="153" y="700"/>
      <point x="153" y="700"/>
      <point x="153" y="700" type="curve"/>
    </contour>
    <contour>
      <point x="921" y="700"/>
      <point x="921" y="722"/>
      <point x="921" y="700" type="curve"/>
      <point x="921" y="700"/>
      <point x="921" y="700"/>
      <point x="921" y="700" type="curve"/>
      <point x="921" y="722"/>
      <point x="921" y="700"/>
      <point x="921" y="722" type="curve"/>
      <point x="921" y="722"/>
      <point x="921" y="722"/>
      <point x="921" y="722" type="curve"/>
    </contour>
    <contour>
      <point x="73" y="0"/>
      <point x="73" y="22"/>
      <point x="73" y="0" type="curve"/>
      <point x="73" y="0"/>
      <point x="73" y="0"/>
      <point x="73" y="0" type="curve"/>
      <point x="73" y="22"/>
      <point x="73" y="0"/>
      <point x="73" y="22" type="curve"/>
      <point x="73" y="22"/>
      <point x="73" y="22"/>
      <point x="73" y="22" type="curve"/>
    </contour>
    <contour>
      <point x="1014" y="0"/>
      <point x="990" y="0"/>
      <point x="1014" y="0" type="curve"/>
      <point x="987" y="241"/>
      <point x="959" y="481"/>
      <point x="931" y="722" type="curve"/>
      <point x="909" y="722"/>
      <point x="931" y="722"/>
      <point x="909" y="722" type="curve"/>
      <point x="936" y="481"/>
      <point x="963" y="241"/>
      <point x="990" y="0" type="curve"/>
    </contour>
    <contour>
      <point x="84" y="0"/>
      <point x="60" y="0"/>
      <point x="84" y="0" type="curve"/>
      <point x="110" y="241"/>
      <point x="136" y="481"/>
      <point x="161" y="722" type="curve"/>
      <point x="139" y="722"/>
      <point x="161" y="722"/>
      <point x="139" y="722" type="curve"/>
      <point x="113" y="481"/>
      <point x="86" y="241"/>
      <point x="60" y="0" type="curve"/>
    </contour>
    <contour>
      <point x="545" y="0"/>
      <point x="520" y="0"/>
      <point x="545" y="0" type="curve"/>
      <point x="418" y="241"/>
      <point x="291" y="481"/>
      <point x="164" y="722" type="curve"/>
      <point x="142" y="722"/>
      <point x="164" y="722"/>
      <point x="142" y="722" type="curve"/>
      <point x="268" y="481"/>
      <point x="394" y="241"/>
      <point x="520" y="0" type="curve"/>
    </contour>
    <contour>
      <point x="556" y="0"/>
      <point x="531" y="0"/>
      <point x="556" y="0" type="curve"/>
      <point x="680" y="241"/>
      <point x="804" y="481"/>
      <point x="928" y="722" type="curve"/>
      <point x="906" y="722"/>
      <point x="928" y="722"/>
      <point x="906" y="722" type="curve"/>
      <point x="781" y="481"/>
      <point x="656" y="241"/>
      <point x="531" y="0" type="curve"/>
    </contour>
  </outline>
</glyph>
<glyph name="N" format="1">
  <advance width="874"/>
  <unicode hex="004E"/>
  <outline>
    <contour>
      <point x="73" y="722"/>
      <point x="73" y="700"/>
      <point x="73" y="722" type="curve"/>
      <point x="73" y="722"/>
      <point x="73" y="722"/>
      <point x="73" y="722" type="curve"/>
      <point x="73" y="700"/>
      <point x="73" y="722"/>
      <point x="73" y="700" type="curve"/>
      <point x="73" y="700"/>
      <point x="73" y="700"/>
      <point x="73" y="700" type="curve"/>
    </contour>
    <contour>
      <point x="802" y="700"/>
      <point x="802" y="722"/>
      <point x="802" y="700" type="curve"/>
      <point x="802" y="700"/>
      <point x="802" y="700"/>
      <point x="802" y="700" type="curve"/>
      <point x="802" y="722"/>
      <point x="802" y="700"/>
      <point x="802" y="722" type="curve"/>
      <point x="802" y="722"/>
      <point x="802" y="722"/>
      <point x="802" y="722" type="curve"/>
    </contour>
    <contour>
      <point x="802" y="722"/>
      <point x="802" y="700"/>
      <point x="802" y="722" type="curve"/>
      <point x="802" y="722"/>
      <point x="802" y="722"/>
      <point x="802" y="722" type="curve"/>
      <point x="802" y="700"/>
      <point x="802" y="722"/>
      <point x="802" y="700" type="curve"/>
      <point x="802" y="700"/>
      <point x="802" y="700"/>
      <point x="802" y="700" type="curve"/>
    </contour>
    <contour>
      <point x="72" y="22"/>
      <point x="72" y="0"/>
      <point x="72" y="22" type="curve"/>
      <point x="72" y="22"/>
      <point x="72" y="22"/>
      <point x="72" y="22" type="curve"/>
      <point x="72" y="0"/>
      <point x="72" y="22"/>
      <point x="72" y="0" type="curve"/>
      <point x="72" y="0"/>
      <point x="72" y="0"/>
      <point x="72" y="0" type="curve"/>
    </contour>
    <contour>
      <point x="72" y="0"/>
      <point x="72" y="22"/>
      <point x="72" y="0" type="curve"/>
      <point x="72" y="0"/>
      <point x="72" y="0"/>
      <point x="72" y="0" type="curve"/>
      <point x="72" y="22"/>
      <point x="72" y="0"/>
      <point x="72" y="22" type="curve"/>
      <point x="72" y="22"/>
      <point x="72" y="22"/>
      <point x="72" y="22" type="curve"/>
    </contour>
    <contour>
      <point x="812" y="0"/>
      <point x="783" y="0"/>
      <point x="812" y="0" type="curve"/>
      <point x="572" y="241"/>
      <point x="331" y="481"/>
      <point x="90" y="722" type="curve"/>
      <point x="61" y="722"/>
      <point x="90" y="722"/>
      <point x="61" y="722" type="curve"/>
      <point x="302" y="481"/>
      <point x="542" y="241"/>
      <point x="783" y="0" type="curve"/>
    </contour>
    <contour>
      <point x="789" y="722"/>
      <point x="813" y="722"/>
      <point x="789" y="722" type="curve"/>
      <point x="789" y="481"/>
      <point x="789" y="241"/>
      <point x="789" y="0" type="curve"/>
      <point x="813" y="0"/>
      <point x="789" y="0"/>
      <point x="813" y="0" type="curve"/>
      <point x="813" y="241"/>
      <point x="813" y="481"/>
      <point x="813" y="722" type="curve"/>
    </contour>
    <contour>
      <point x="84" y="0"/>
      <point x="60" y="0"/>
      <point x="84" y="0" type="curve"/>
      <point x="84" y="241"/>
      <point x="84" y="481"/>
      <point x="84" y="722" type="curve"/>
      <point x="60" y="722"/>
      <point x="84" y="722"/>
      <point x="60" y="722" type="curve"/>
      <point x="60" y="481"/>
      <point x="60" y="241"/>
      <point x="60" y="0" type="curve"/>
    </contour>
  </outline>
</glyph>
<glyph name="Q" format="1">
  <advance width="1071"/>
  <unicode hex="0051"/>
  <outline>
    <contour>
      <point x="465" y="4"/>
      <point x="485" y="15"/>
      <point x="465" y="4" type="curve"/>
      <point x="612" y="-196"/>
      <point x="774" y="-240"/>
      <point x="1010" y="-240" type="curve"/>
      <point x="1010" y="-217"/>
      <point x="1010" y="-240"/>
      <point x="1010" y="-217" type="curve"/>
      <point x="785" y="-217"/>
      <point x="629" y="-177"/>
      <point x="485" y="15" type="curve"/>
    </contour>
    <contour>
      <point x="84" y="360"/>
      <point x="60" y="360"/>
      <point x="84" y="360" type="curve"/>
      <point x="84" y="576"/>
      <point x="239" y="698"/>
      <point x="462" y="698" type="curve"/>
      <point x="687" y="698"/>
      <point x="843" y="578"/>
      <point x="843" y="363" type="curve"/>
      <point x="843" y="147"/>
      <point x="689" y="22"/>
      <point x="466" y="22" type="curve"/>
      <point x="241" y="22"/>
      <point x="84" y="144"/>
      <point x="84" y="360" type="curve"/>
      <point x="60" y="360"/>
      <point x="84" y="360"/>
      <point x="60" y="360" type="curve"/>
      <point x="60" y="129"/>
      <point x="227" y="-5"/>
      <point x="465" y="-5" type="curve"/>
      <point x="704" y="-5"/>
      <point x="867" y="132"/>
      <point x="867" y="364" type="curve"/>
      <point x="867" y="594"/>
      <point x="703" y="727"/>
      <point x="465" y="727" type="curve"/>
      <point x="226" y="727"/>
      <point x="60" y="591"/>
      <point x="60" y="360" type="curve"/>
    </contour>
  </outline>
</glyph>
<glyph name="R" format="1">
  <advance width="772"/>
  <unicode hex="0052"/>
  <outline>
    <contour>
      <point x="678" y="0"/>
      <point x="678" y="22"/>
      <point x="678" y="0" type="curve"/>
      <point x="678" y="0"/>
      <point x="678" y="0"/>
      <point x="678" y="0" type="curve"/>
      <point x="678" y="22"/>
      <point x="678" y="0"/>
      <point x="678" y="22" type="curve"/>
      <point x="678" y="22"/>
      <point x="678" y="22"/>
      <point x="678" y="22" type="curve"/>
    </contour>
    <contour>
      <point x="71" y="722"/>
      <point x="71" y="700"/>
      <point x="71" y="722" type="curve"/>
      <point x="71" y="722"/>
      <point x="71" y="722"/>
      <point x="71" y="722" type="curve"/>
      <point x="71" y="700"/>
      <point x="71" y="722"/>
      <point x="71" y="700" type="curve"/>
      <point x="71" y="700"/>
      <point x="71" y="700"/>
      <point x="71" y="700" type="curve"/>
    </contour>
    <contour>
      <point x="71" y="22"/>
      <point x="71" y="0"/>
      <point x="71" y="22" type="curve"/>
      <point x="71" y="22"/>
      <point x="71" y="22"/>
      <point x="71" y="22" type="curve"/>
      <point x="71" y="0"/>
      <point x="71" y="22"/>
      <point x="71" y="0" type="curve"/>
      <point x="71" y="0"/>
      <point x="71" y="0"/>
      <point x="71" y="0" type="curve"/>
    </contour>
    <contour>
      <point x="71" y="0"/>
      <point x="71" y="22"/>
      <point x="71" y="0" type="curve"/>
      <point x="71" y="0"/>
      <point x="71" y="0"/>
      <point x="71" y="0" type="curve"/>
      <point x="71" y="22"/>
      <point x="71" y="0"/>
      <point x="71" y="22" type="curve"/>
      <point x="71" y="22"/>
      <point x="71" y="22"/>
      <point x="71" y="22" type="curve"/>
    </contour>
    <contour>
      <point x="336" y="354"/>
      <point x="365" y="354"/>
      <point x="336" y="354" type="curve"/>
      <point x="451" y="236"/>
      <point x="567" y="118"/>
      <point x="682" y="0" type="curve"/>
      <point x="711" y="0"/>
      <point x="682" y="0"/>
      <point x="711" y="0" type="curve"/>
      <point x="596" y="118"/>
      <point x="481" y="236"/>
      <point x="365" y="354" type="curve"/>
    </contour>
    <contour>
      <point x="84" y="0"/>
      <point x="60" y="0"/>
      <point x="84" y="0" type="curve"/>
      <point x="84" y="241"/>
      <point x="84" y="481"/>
      <point x="84" y="722" type="curve"/>
      <point x="60" y="722"/>
      <point x="84" y="722"/>
      <point x="60" y="722" type="curve"/>
      <point x="60" y="481"/>
      <point x="60" y="241"/>
      <point x="60" y="0" type="curve"/>
    </contour>
    <contour>
      <point x="75" y="340"/>
      <point x="75" y="362"/>
      <point x="75" y="340" type="curve"/>
      <point x="151" y="340"/>
      <point x="228" y="340"/>
      <point x="305" y="340" type="curve"/>
      <point x="471" y="340"/>
      <point x="596" y="389"/>
      <point x="596" y="537" type="curve"/>
      <point x="596" y="679"/>
      <point x="474" y="722"/>
      <point x="315" y="722" type="curve"/>
      <point x="235" y="722"/>
      <point x="155" y="722"/>
      <point x="75" y="722" type="curve"/>
      <point x="75" y="700"/>
      <point x="75" y="722"/>
      <point x="75" y="700" type="curve"/>
      <point x="153" y="700"/>
      <point x="232" y="700"/>
      <point x="310" y="700" type="curve"/>
      <point x="458" y="700"/>
      <point x="572" y="664"/>
      <point x="572" y="535" type="curve"/>
      <point x="572" y="403"/>
      <point x="457" y="362"/>
      <point x="308" y="362" type="curve"/>
      <point x="230" y="362"/>
      <point x="152" y="362"/>
      <point x="75" y="362" type="curve"/>
    </contour>
  </outline>
</glyph>
<glyph name="S" format="1">
  <advance width="687"/>
  <unicode hex="0053"/>
  <outline>
    <contour>
      <point x="584" y="663"/>
      <point x="606" y="663"/>
      <point x="584" y="663" type="curve"/>
      <point x="584" y="663"/>
      <point x="584" y="663"/>
      <point x="584" y="663" type="curve"/>
      <point x="606" y="663"/>
      <point x="584" y="663"/>
      <point x="606" y="663" type="curve"/>
      <point x="606" y="663"/>
      <point x="606" y="663"/>
      <point x="606" y="663" type="curve"/>
    </contour>
    <contour>
      <point x="82" y="58"/>
      <point x="60" y="58"/>
      <point x="82" y="58" type="curve"/>
      <point x="82" y="58"/>
      <point x="82" y="58"/>
      <point x="82" y="58" type="curve"/>
      <point x="60" y="58"/>
      <point x="82" y="58"/>
      <point x="60" y="58" type="curve"/>
      <point x="60" y="58"/>
      <point x="60" y="58"/>
      <point x="60" y="58" type="curve"/>
    </contour>
    <contour>
      <point x="62" y="58"/>
      <point x="75" y="78"/>
      <point x="62" y="58" type="curve"/>
      <point x="152" y="16"/>
      <point x="225" y="0"/>
      <point x="323" y="0" type="curve"/>
      <point x="483" y="0"/>
      <point x="626" y="31"/>
      <point x="626" y="169" type="curve"/>
      <point x="626" y="304"/>
      <point x="496" y="334"/>
      <point x="363" y="382" type="curve"/>
      <point x="243" y="424"/>
      <point x="121" y="443"/>
      <point x="121" y="563" type="curve"/>
      <point x="121" y="668"/>
      <point x="225" y="700"/>
      <point x="346" y="700" type="curve"/>
      <point x="439" y="700"/>
      <point x="509" y="684"/>
      <point x="595" y="646" type="curve"/>
      <point x="606" y="663"/>
      <point x="595" y="646"/>
      <point x="606" y="663" type="curve"/>
      <point x="517" y="703"/>
      <point x="444" y="717"/>
      <point x="347" y="717" type="curve"/>
      <point x="212" y="717"/>
      <point x="97" y="679"/>
      <point x="97" y="562" type="curve"/>
      <point x="97" y="434"/>
      <point x="222" y="408"/>
      <point x="348" y="363" type="curve"/>
      <point x="475" y="319"/>
      <point x="602" y="297"/>
      <point x="602" y="169" type="curve"/>
      <point x="602" y="44"/>
      <point x="470" y="27"/>
      <point x="325" y="27" type="curve"/>
      <point x="232" y="27"/>
      <point x="161" y="40"/>
      <point x="75" y="78" type="curve"/>
    </contour>
  </outline>
</glyph>
<glyph name="T" format="1">
  <advance width="957"/>
  <unicode hex="0054"/>
  <outline>
    <contour>
      <point x="60" y="710"/>
      <point x="82" y="710"/>
      <point x="60" y="710" type="curve"/>
      <point x="60" y="710"/>
      <point x="60" y="710"/>
      <point x="60" y="710" type="curve"/>
      <point x="82" y="710"/>
      <point x="60" y="710"/>
      <point x="82" y="710" type="curve"/>
      <point x="82" y="710"/>
      <point x="82" y="710"/>
      <point x="82" y="710" type="curve"/>
    </contour>
    <contour>
      <point x="875" y="710"/>
      <point x="897" y="710"/>
      <point x="875" y="710" type="curve"/>
      <point x="875" y="710"/>
      <point x="875" y="710"/>
      <point x="875" y="710" type="curve"/>
      <point x="897" y="710"/>
      <point x="875" y="710"/>
      <point x="897" y="710" type="curve"/>
      <point x="897" y="710"/>
      <point x="897" y="710"/>
      <point x="897" y="710" type="curve"/>
    </contour>
    <contour>
      <point x="477" y="0"/>
      <point x="477" y="22"/>
      <point x="477" y="0" type="curve"/>
      <point x="477" y="0"/>
      <point x="477" y="0"/>
      <point x="477" y="0" type="curve"/>
      <point x="477" y="22"/>
      <point x="477" y="0"/>
      <point x="477" y="22" type="curve"/>
      <point x="477" y="22"/>
      <point x="477" y="22"/>
      <point x="477" y="22" type="curve"/>
    </contour>
    <contour>
      <point x="477" y="22"/>
      <point x="477" y="0"/>
      <point x="477" y="22" type="curve"/>
      <point x="477" y="22"/>
      <point x="477" y="22"/>
      <point x="477" y="22" type="curve"/>
      <point x="477" y="0"/>
      <point x="477" y="22"/>
      <point x="477" y="0" type="curve"/>
      <point x="477" y="0"/>
      <point x="477" y="0"/>
      <point x="477" y="0" type="curve"/>
    </contour>
    <contour>
      <point x="491" y="0"/>
      <point x="466" y="0"/>
      <point x="491" y="0" type="curve"/>
      <point x="491" y="237"/>
      <point x="491" y="473"/>
      <point x="491" y="710" type="curve"/>
      <point x="466" y="710"/>
      <point x="491" y="710"/>
      <point x="466" y="710" type="curve"/>
      <point x="466" y="473"/>
      <point x="466" y="237"/>
      <point x="466" y="0" type="curve"/>
    </contour>
    <contour>
      <point x="60" y="698"/>
      <point x="60" y="722"/>
      <point x="60" y="698" type="curve"/>
      <point x="339" y="698"/>
      <point x="618" y="698"/>
      <point x="897" y="698" type="curve"/>
      <point x="897" y="722"/>
      <point x="897" y="698"/>
      <point x="897" y="722" type="curve"/>
      <point x="618" y="722"/>
      <point x="339" y="722"/>
      <point x="60" y="722" type="curve"/>
    </contour>
  </outline>
</glyph>
<glyph name="V" format="1">
  <advance width="911"/>
  <unicode hex="0056"/>
  <outline>
    <contour>
      <point x="831" y="722"/>
      <point x="831" y="700"/>
      <point x="831" y="722" type="curve"/>
      <point x="763" y="722"/>
      <point x="897" y="722"/>
      <point x="828" y="722" type="curve"/>
      <point x="828" y="700"/>
      <point x="828" y="722"/>
      <point x="828" y="700" type="curve"/>
      <point x="1033" y="700"/>
      <point x="626" y="700"/>
      <point x="831" y="700" type="curve"/>
    </contour>
    <contour>
      <point x="89" y="722"/>
      <point x="89" y="700"/>
      <point x="89" y="722" type="curve"/>
      <point x="89" y="722"/>
      <point x="89" y="722"/>
      <point x="89" y="722" type="curve"/>
      <point x="89" y="700"/>
      <point x="89" y="722"/>
      <point x="89" y="700" type="curve"/>
      <point x="89" y="700"/>
      <point x="89" y="700"/>
      <point x="89" y="700" type="curve"/>
    </contour>
    <contour>
      <point x="821" y="700"/>
      <point x="821" y="722"/>
      <point x="821" y="700" type="curve"/>
      <point x="821" y="700"/>
      <point x="821" y="700"/>
      <point x="821" y="700" type="curve"/>
      <point x="821" y="722"/>
      <point x="821" y="700"/>
      <point x="821" y="722" type="curve"/>
      <point x="821" y="722"/>
      <point x="821" y="722"/>
      <point x="821" y="722" type="curve"/>
    </contour>
    <contour>
      <point x="79" y="700"/>
      <point x="79" y="722"/>
      <point x="79" y="700" type="curve"/>
      <point x="284" y="700"/>
      <point x="-124" y="700"/>
      <point x="81" y="700" type="curve"/>
      <point x="81" y="722"/>
      <point x="81" y="700"/>
      <point x="81" y="722" type="curve"/>
      <point x="13" y="722"/>
      <point x="147" y="722"/>
      <point x="79" y="722" type="curve"/>
    </contour>
    <contour>
      <point x="824" y="722"/>
      <point x="850" y="722"/>
      <point x="824" y="722" type="curve"/>
      <point x="699" y="481"/>
      <point x="574" y="241"/>
      <point x="449" y="0" type="curve"/>
      <point x="476" y="0"/>
      <point x="449" y="0"/>
      <point x="476" y="0" type="curve"/>
      <point x="601" y="241"/>
      <point x="726" y="481"/>
      <point x="850" y="722" type="curve"/>
    </contour>
    <contour>
      <point x="60" y="722"/>
      <point x="86" y="722"/>
      <point x="60" y="722" type="curve"/>
      <point x="187" y="481"/>
      <point x="314" y="241"/>
      <point x="441" y="0" type="curve"/>
      <point x="467" y="0"/>
      <point x="441" y="0"/>
      <point x="467" y="0" type="curve"/>
      <point x="340" y="241"/>
      <point x="213" y="481"/>
      <point x="86" y="722" type="curve"/>
    </contour>
  </outline>
</glyph>
<glyph name="W" format="1">
  <advance width="1172"/>
  <unicode hex="0057"/>
  <outline>
    <contour>
      <point x="592" y="700"/>
      <point x="592" y="722"/>
      <point x="592" y="700" type="curve"/>
      <point x="592" y="700"/>
      <point x="592" y="700"/>
      <point x="592" y="700" type="curve"/>
      <point x="592" y="722"/>
      <point x="592" y="700"/>
      <point x="592" y="722" type="curve"/>
      <point x="592" y="722"/>
      <point x="592" y="722"/>
      <point x="592" y="722" type="curve"/>
    </contour>
    <contour>
      <point x="592" y="722"/>
      <point x="592" y="700"/>
      <point x="592" y="722" type="curve"/>
      <point x="592" y="722"/>
      <point x="592" y="722"/>
      <point x="592" y="722" type="curve"/>
      <point x="592" y="700"/>
      <point x="592" y="722"/>
      <point x="592" y="700" type="curve"/>
      <point x="592" y="700"/>
      <point x="592" y="700"/>
      <point x="592" y="700" type="curve"/>
    </contour>
    <contour>
      <point x="90" y="700"/>
      <point x="90" y="722"/>
      <point x="90" y="700" type="curve"/>
      <point x="90" y="700"/>
      <point x="90" y="700"/>
      <point x="90" y="700" type="curve"/>
      <point x="90" y="722"/>
      <point x="90" y="700"/>
      <point x="90" y="722" type="curve"/>
      <point x="90" y="722"/>
      <point x="90" y="722"/>
      <point x="90" y="722" type="curve"/>
    </contour>
    <contour>
      <point x="90" y="722"/>
      <point x="90" y="700"/>
      <point x="90" y="722" type="curve"/>
      <point x="90" y="722"/>
      <point x="90" y="722"/>
      <point x="90" y="722" type="curve"/>
      <point x="90" y="700"/>
      <point x="90" y="722"/>
      <point x="90" y="700" type="curve"/>
      <point x="90" y="700"/>
      <point x="90" y="700"/>
      <point x="90" y="700" type="curve"/>
    </contour>
    <contour>
      <point x="1083" y="722"/>
      <point x="1083" y="700"/>
      <point x="1083" y="722" type="curve"/>
      <point x="1083" y="722"/>
      <point x="1083" y="722"/>
      <point x="1083" y="722" type="curve"/>
      <point x="1083" y="700"/>
      <point x="1083" y="722"/>
      <point x="1083" y="700" type="curve"/>
      <point x="1083" y="700"/>
      <point x="1083" y="700"/>
      <point x="1083" y="700" type="curve"/>
    </contour>
    <contour>
      <point x="1083" y="700"/>
      <point x="1083" y="722"/>
      <point x="1083" y="700" type="curve"/>
      <point x="1083" y="700"/>
      <point x="1083" y="700"/>
      <point x="1083" y="700" type="curve"/>
      <point x="1083" y="722"/>
      <point x="1083" y="700"/>
      <point x="1083" y="722" type="curve"/>
      <point x="1083" y="722"/>
      <point x="1083" y="722"/>
      <point x="1083" y="722" type="curve"/>
    </contour>
    <contour>
      <point x="331" y="0"/>
      <point x="313" y="0"/>
      <point x="331" y="0" type="curve"/>
      <point x="421" y="241"/>
      <point x="511" y="481"/>
      <point x="601" y="722" type="curve"/>
      <point x="578" y="722"/>
      <point x="601" y="722"/>
      <point x="578" y="722" type="curve"/>
      <point x="490" y="481"/>
      <point x="401" y="241"/>
      <point x="313" y="0" type="curve"/>
    </contour>
    <contour>
      <point x="588" y="722"/>
      <point x="611" y="722"/>
      <point x="588" y="722" type="curve"/>
      <point x="669" y="481"/>
      <point x="750" y="241"/>
      <point x="831" y="0" type="curve"/>
      <point x="849" y="0"/>
      <point x="831" y="0"/>
      <point x="849" y="0" type="curve"/>
      <point x="769" y="241"/>
      <point x="690" y="481"/>
      <point x="611" y="722" type="curve"/>
    </contour>
    <contour>
      <point x="60" y="722"/>
      <point x="85" y="722"/>
      <point x="60" y="722" type="curve"/>
      <point x="142" y="481"/>
      <point x="223" y="241"/>
      <point x="305" y="0" type="curve"/>
      <point x="322" y="0"/>
      <point x="305" y="0"/>
      <point x="322" y="0" type="curve"/>
      <point x="243" y="241"/>
      <point x="164" y="481"/>
      <point x="85" y="722" type="curve"/>
    </contour>
    <contour>
      <point x="1087" y="722"/>
      <point x="1113" y="722"/>
      <point x="1087" y="722" type="curve"/>
      <point x="1005" y="481"/>
      <point x="922" y="241"/>
      <point x="839" y="0" type="curve"/>
      <point x="857" y="0"/>
      <point x="839" y="0"/>
      <point x="857" y="0" type="curve"/>
      <point x="942" y="241"/>
      <point x="1027" y="481"/>
      <point x="1113" y="722" type="curve"/>
    </contour>
  </outline>
</glyph>
<glyph name="X" format="1">
  <advance width="859"/>
  <unicode hex="0058"/>
  <outline>
    <contour>
      <point x="91" y="0"/>
      <point x="91" y="22"/>
      <point x="91" y="0" type="curve"/>
      <point x="91" y="0"/>
      <point x="91" y="0"/>
      <point x="91" y="0" type="curve"/>
      <point x="91" y="22"/>
      <point x="91" y="0"/>
      <point x="91" y="22" type="curve"/>
      <point x="91" y="22"/>
      <point x="91" y="22"/>
      <point x="91" y="22" type="curve"/>
    </contour>
    <contour>
      <point x="91" y="22"/>
      <point x="91" y="0"/>
      <point x="91" y="22" type="curve"/>
      <point x="91" y="22"/>
      <point x="91" y="22"/>
      <point x="91" y="22" type="curve"/>
      <point x="91" y="0"/>
      <point x="91" y="22"/>
      <point x="91" y="0" type="curve"/>
      <point x="91" y="0"/>
      <point x="91" y="0"/>
      <point x="91" y="0" type="curve"/>
    </contour>
    <contour>
      <point x="765" y="0"/>
      <point x="765" y="22"/>
      <point x="765" y="0" type="curve"/>
      <point x="765" y="0"/>
      <point x="765" y="0"/>
      <point x="765" y="0" type="curve"/>
      <point x="765" y="22"/>
      <point x="765" y="0"/>
      <point x="765" y="22" type="curve"/>
      <point x="765" y="22"/>
      <point x="765" y="22"/>
      <point x="765" y="22" type="curve"/>
    </contour>
    <contour>
      <point x="765" y="22"/>
      <point x="765" y="0"/>
      <point x="765" y="22" type="curve"/>
      <point x="765" y="22"/>
      <point x="765" y="22"/>
      <point x="765" y="22" type="curve"/>
      <point x="765" y="0"/>
      <point x="765" y="22"/>
      <point x="765" y="0" type="curve"/>
      <point x="765" y="0"/>
      <point x="765" y="0"/>
      <point x="765" y="0" type="curve"/>
    </contour>
    <contour>
      <point x="730" y="700"/>
      <point x="730" y="722"/>
      <point x="730" y="700" type="curve"/>
      <point x="730" y="700"/>
      <point x="730" y="700"/>
      <point x="730" y="700" type="curve"/>
      <point x="730" y="722"/>
      <point x="730" y="700"/>
      <point x="730" y="722" type="curve"/>
      <point x="730" y="722"/>
      <point x="730" y="722"/>
      <point x="730" y="722" type="curve"/>
    </contour>
    <contour>
      <point x="730" y="722"/>
      <point x="730" y="700"/>
      <point x="730" y="722" type="curve"/>
      <point x="730" y="722"/>
      <point x="730" y="722"/>
      <point x="730" y="722" type="curve"/>
      <point x="730" y="700"/>
      <point x="730" y="722"/>
      <point x="730" y="700" type="curve"/>
      <point x="730" y="700"/>
      <point x="730" y="700"/>
      <point x="730" y="700" type="curve"/>
    </contour>
    <contour>
      <point x="132" y="722"/>
      <point x="132" y="700"/>
      <point x="132" y="722" type="curve"/>
      <point x="132" y="722"/>
      <point x="132" y="722"/>
      <point x="132" y="722" type="curve"/>
      <point x="132" y="700"/>
      <point x="132" y="722"/>
      <point x="132" y="700" type="curve"/>
      <point x="132" y="700"/>
      <point x="132" y="700"/>
      <point x="132" y="700" type="curve"/>
    </contour>
    <contour>
      <point x="132" y="700"/>
      <point x="132" y="722"/>
      <point x="132" y="700" type="curve"/>
      <point x="132" y="700"/>
      <point x="132" y="700"/>
      <point x="132" y="700" type="curve"/>
      <point x="132" y="722"/>
      <point x="132" y="700"/>
      <point x="132" y="722" type="curve"/>
      <point x="132" y="722"/>
      <point x="132" y="722"/>
      <point x="132" y="722" type="curve"/>
    </contour>
    <contour>
      <point x="733" y="722"/>
      <point x="762" y="722"/>
      <point x="733" y="722" type="curve"/>
      <point x="509" y="481"/>
      <point x="284" y="241"/>
      <point x="60" y="0" type="curve"/>
      <point x="92" y="0"/>
      <point x="60" y="0"/>
      <point x="92" y="0" type="curve"/>
      <point x="315" y="241"/>
      <point x="539" y="481"/>
      <point x="762" y="722" type="curve"/>
    </contour>
    <contour>
      <point x="104" y="722"/>
      <point x="133" y="722"/>
      <point x="104" y="722" type="curve"/>
      <point x="326" y="481"/>
      <point x="547" y="241"/>
      <point x="769" y="0" type="curve"/>
      <point x="799" y="0"/>
      <point x="769" y="0"/>
      <point x="799" y="0" type="curve"/>
      <point x="577" y="241"/>
      <point x="355" y="481"/>
      <point x="133" y="722" type="curve"/>
    </contour>
  </outline>
</glyph>
<glyph name="Y" format="1">
  <advance width="798"/>
  <unicode hex="0059"/>
  <outline>
    <contour>
      <point x="390" y="22"/>
      <point x="390" y="0"/>
      <point x="390" y="22" type="curve"/>
      <point x="390" y="22"/>
      <point x="390" y="22"/>
      <point x="390" y="22" type="curve"/>
      <point x="390" y="0"/>
      <point x="390" y="22"/>
      <point x="390" y="0" type="curve"/>
      <point x="390" y="0"/>
      <point x="390" y="0"/>
      <point x="390" y="0" type="curve"/>
    </contour>
    <contour>
      <point x="390" y="0"/>
      <point x="390" y="22"/>
      <point x="390" y="0" type="curve"/>
      <point x="390" y="0"/>
      <point x="390" y="0"/>
      <point x="390" y="0" type="curve"/>
      <point x="390" y="22"/>
      <point x="390" y="0"/>
      <point x="390" y="22" type="curve"/>
      <point x="390" y="22"/>
      <point x="390" y="22"/>
      <point x="390" y="22" type="curve"/>
    </contour>
    <contour>
      <point x="709" y="722"/>
      <point x="709" y="700"/>
      <point x="709" y="722" type="curve"/>
      <point x="709" y="722"/>
      <point x="709" y="722"/>
      <point x="709" y="722" type="curve"/>
      <point x="709" y="700"/>
      <point x="709" y="722"/>
      <point x="709" y="700" type="curve"/>
      <point x="709" y="700"/>
      <point x="709" y="700"/>
      <point x="709" y="700" type="curve"/>
    </contour>
    <contour>
      <point x="89" y="722"/>
      <point x="89" y="700"/>
      <point x="89" y="722" type="curve"/>
      <point x="89" y="722"/>
      <point x="89" y="722"/>
      <point x="89" y="722" type="curve"/>
      <point x="89" y="700"/>
      <point x="89" y="722"/>
      <point x="89" y="700" type="curve"/>
      <point x="89" y="700"/>
      <point x="89" y="700"/>
      <point x="89" y="700" type="curve"/>
    </contour>
    <contour>
      <point x="89" y="700"/>
      <point x="89" y="722"/>
      <point x="89" y="700" type="curve"/>
      <point x="89" y="700"/>
      <point x="89" y="700"/>
      <point x="89" y="700" type="curve"/>
      <point x="89" y="722"/>
      <point x="89" y="700"/>
      <point x="89" y="722" type="curve"/>
      <point x="89" y="722"/>
      <point x="89" y="722"/>
      <point x="89" y="722" type="curve"/>
    </contour>
    <contour>
      <point x="709" y="700"/>
      <point x="709" y="722"/>
      <point x="709" y="700" type="curve"/>
      <point x="709" y="700"/>
      <point x="709" y="700"/>
      <point x="709" y="700" type="curve"/>
      <point x="709" y="722"/>
      <point x="709" y="700"/>
      <point x="709" y="722" type="curve"/>
      <point x="709" y="722"/>
      <point x="709" y="722"/>
      <point x="709" y="722" type="curve"/>
    </contour>
    <contour>
      <point x="60" y="722"/>
      <point x="86" y="722"/>
      <point x="60" y="722" type="curve"/>
      <point x="166" y="594"/>
      <point x="271" y="465"/>
      <point x="377" y="337" type="curve"/>
      <point x="403" y="337"/>
      <point x="377" y="337"/>
      <point x="403" y="337" type="curve"/>
      <point x="298" y="465"/>
      <point x="192" y="594"/>
      <point x="86" y="722" type="curve"/>
    </contour>
    <contour>
      <point x="712" y="722"/>
      <point x="738" y="722"/>
      <point x="712" y="722" type="curve"/>
      <point x="600" y="594"/>
      <point x="489" y="465"/>
      <point x="377" y="337" type="curve"/>
      <point x="403" y="337"/>
      <point x="377" y="337"/>
      <point x="403" y="337" type="curve"/>
      <point x="515" y="465"/>
      <point x="627" y="594"/>
      <point x="738" y="722" type="curve"/>
    </contour>
    <contour>
      <point x="404" y="0"/>
      <point x="377" y="0"/>
      <point x="404" y="0" type="curve"/>
      <point x="404" y="115"/>
      <point x="404" y="231"/>
      <point x="404" y="346" type="curve"/>
      <point x="377" y="346"/>
      <point x="404" y="346"/>
      <point x="377" y="346" type="curve"/>
      <point x="377" y="231"/>
      <point x="377" y="115"/>
      <point x="377" y="0" type="curve"/>
    </contour>
  </outline>
</glyph>
<glyph name="bracketleft" format="1">
  <advance width="331"/>
  <unicode hex="005B"/>
  <outline>
    <contour>
      <point x="270" y="771"/>
      <point x="270" y="747"/>
      <point x="270" y="771" type="curve"/>
      <point x="202" y="771"/>
      <point x="133" y="771"/>
      <point x="64" y="771" type="curve"/>
      <point x="63" y="771"/>
      <point x="61" y="770"/>
      <point x="60" y="771" type="curve"/>
      <point x="60" y="769"/>
      <point x="61" y="767"/>
      <point x="61" y="765" type="curve"/>
      <point x="61" y="470"/>
      <point x="61" y="175"/>
      <point x="61" y="-120" type="curve"/>
      <point x="61" y="-121"/>
      <point x="60" y="-122"/>
      <point x="60" y="-123" type="curve"/>
      <point x="61" y="-123"/>
      <point x="62" y="-124"/>
      <point x="63" y="-124" type="curve"/>
      <point x="132" y="-124"/>
      <point x="201" y="-124"/>
      <point x="270" y="-124" type="curve"/>
      <point x="270" y="-100"/>
      <point x="270" y="-124"/>
      <point x="270" y="-100" type="curve"/>
      <point x="201" y="-100"/>
      <point x="132" y="-100"/>
      <point x="63" y="-100" type="curve"/>
      <point x="85" y="-100"/>
      <point x="63" y="-100"/>
      <point x="85" y="-100" type="curve"/>
      <point x="85" y="-120"/>
      <point x="85" y="-100"/>
      <point x="85" y="-120" type="curve"/>
      <point x="85" y="175"/>
      <point x="85" y="470"/>
      <point x="85" y="765" type="curve"/>
      <point x="85" y="747"/>
      <point x="85" y="765"/>
      <point x="85" y="747" type="curve"/>
      <point x="64" y="747"/>
      <point x="85" y="747"/>
      <point x="64" y="747" type="curve"/>
      <point x="133" y="747"/>
      <point x="202" y="747"/>
      <point x="270" y="747" type="curve"/>
    </contour>
  </outline>
</glyph>
<glyph name="backslash" format="1">
  <advance width="674"/>
  <unicode hex="005C"/>
  <outline>
    <contour>
      <point x="615" y="-68"/>
      <point x="589" y="-68"/>
      <point x="615" y="-68" type="curve"/>
      <point x="438" y="236"/>
      <point x="262" y="540"/>
      <point x="85" y="844" type="curve"/>
      <point x="60" y="844"/>
      <point x="85" y="844"/>
      <point x="60" y="844" type="curve"/>
      <point x="236" y="540"/>
      <point x="413" y="236"/>
      <point x="589" y="-68" type="curve"/>
    </contour>
  </outline>
</glyph>
<glyph name="b" format="1">
  <advance width="711"/>
  <unicode hex="0062"/>
  <outline>
    <contour>
      <point x="75" y="800"/>
      <point x="75" y="778"/>
      <point x="75" y="800" type="curve"/>
      <point x="75" y="800"/>
      <point x="75" y="800"/>
      <point x="75" y="800" type="curve"/>
      <point x="75" y="778"/>
      <point x="75" y="800"/>
      <point x="75" y="778" type="curve"/>
      <point x="75" y="778"/>
      <point x="75" y="778"/>
      <point x="75" y="778" type="curve"/>
    </contour>
    <contour>
      <point x="79" y="408"/>
      <point x="67" y="424"/>
      <point x="79" y="408" type="curve"/>
      <point x="137" y="462"/>
      <point x="242" y="511"/>
      <point x="360" y="511" type="curve"/>
      <point x="517" y="511"/>
      <point x="627" y="417"/>
      <point x="627" y="263" type="curve"/>
      <point x="631" y="111"/>
      <point x="516" y="20"/>
      <point x="358" y="22" type="curve"/>
      <point x="250" y="22"/>
      <point x="167" y="43"/>
      <point x="81" y="110" type="curve"/>
      <point x="66" y="97"/>
      <point x="81" y="110"/>
      <point x="66" y="97" type="curve"/>
      <point x="154" y="23"/>
      <point x="244" y="0"/>
      <point x="359" y="0" type="curve"/>
      <point x="529" y="0"/>
      <point x="652" y="100"/>
      <point x="651" y="264" type="curve"/>
      <point x="651" y="429"/>
      <point x="531" y="533"/>
      <point x="362" y="533" type="curve"/>
      <point x="239" y="533"/>
      <point x="129" y="482"/>
      <point x="67" y="424" type="curve"/>
    </contour>
    <contour>
      <point x="84" y="0"/>
      <point x="60" y="0"/>
      <point x="84" y="0" type="curve"/>
      <point x="84" y="267"/>
      <point x="84" y="533"/>
      <point x="84" y="800" type="curve"/>
      <point x="60" y="800"/>
      <point x="84" y="800"/>
      <point x="60" y="800" type="curve"/>
      <point x="60" y="533"/>
      <point x="60" y="267"/>
      <point x="60" y="0" type="curve"/>
    </contour>
    <contour>
      <point x="75" y="22"/>
      <point x="75" y="0"/>
      <point x="75" y="22" type="curve"/>
      <point x="75" y="22"/>
      <point x="75" y="22"/>
      <point x="75" y="22" type="curve"/>
      <point x="75" y="0"/>
      <point x="75" y="22"/>
      <point x="75" y="0" type="curve"/>
      <point x="75" y="0"/>
      <point x="75" y="0"/>
      <point x="75" y="0" type="curve"/>
    </contour>
  </outline>
</glyph>
<glyph name="c" format="1">
  <advance width="665"/>
  <unicode hex="0063"/>
  <outline>
    <contour>
      <point x="568" y="473"/>
      <point x="590" y="473"/>
      <point x="568" y="473" type="curve"/>
      <point x="568" y="473"/>
      <point x="568" y="473"/>
      <point x="568" y="473" type="curve"/>
      <point x="590" y="473"/>
      <point x="568" y="473"/>
      <point x="590" y="473" type="curve"/>
      <point x="590" y="473"/>
      <point x="590" y="473"/>
      <point x="590" y="473" type="curve"/>
    </contour>
    <contour>
      <point x="590" y="473"/>
      <point x="576" y="458"/>
      <point x="590" y="473" type="curve"/>
      <point x="527" y="511"/>
      <point x="451" y="538"/>
      <point x="374" y="538" type="curve"/>
      <point x="186" y="538"/>
      <point x="60" y="450"/>
      <point x="60" y="267" type="curve"/>
      <point x="60" y="84"/>
      <point x="184" y="-5"/>
      <point x="372" y="-5" type="curve"/>
      <point x="457" y="-5"/>
      <point x="542" y="25"/>
      <point x="605" y="82" type="curve"/>
      <point x="588" y="98"/>
      <point x="605" y="82"/>
      <point x="588" y="98" type="curve"/>
      <point x="530" y="45"/>
      <point x="452" y="22"/>
      <point x="373" y="22" type="curve"/>
      <point x="201" y="22"/>
      <point x="84" y="100"/>
      <point x="84" y="267" type="curve"/>
      <point x="84" y="434"/>
      <point x="201" y="511"/>
      <point x="373" y="511" type="curve"/>
      <point x="445" y="511"/>
      <point x="517" y="493"/>
      <point x="576" y="458" type="curve"/>
    </contour>
  </outline>
</glyph>
<glyph name="d" format="1">
  <advance width="720"/>
  <unicode hex="0064"/>
  <outline>
    <contour>
      <point x="646" y="800"/>
      <point x="646" y="778"/>
      <point x="646" y="800" type="curve"/>
      <point x="646" y="800"/>
      <point x="646" y="800"/>
      <point x="646" y="800" type="curve"/>
      <point x="646" y="778"/>
      <point x="646" y="800"/>
      <point x="646" y="778" type="curve"/>
      <point x="646" y="778"/>
      <point x="646" y="778"/>
      <point x="646" y="778" type="curve"/>
    </contour>
    <contour>
      <point x="647" y="0"/>
      <point x="647" y="22"/>
      <point x="647" y="0" type="curve"/>
      <point x="647" y="0"/>
      <point x="647" y="0"/>
      <point x="647" y="0" type="curve"/>
      <point x="647" y="22"/>
      <point x="647" y="0"/>
      <point x="647" y="22" type="curve"/>
      <point x="647" y="22"/>
      <point x="647" y="22"/>
      <point x="647" y="22" type="curve"/>
    </contour>
    <contour>
      <point x="654" y="448"/>
      <point x="639" y="432"/>
      <point x="654" y="448" type="curve"/>
      <point x="577" y="510"/>
      <point x="490" y="533"/>
      <point x="386" y="533" type="curve"/>
      <point x="200" y="533"/>
      <point x="60" y="438"/>
      <point x="60" y="264" type="curve"/>
      <point x="60" y="91"/>
      <point x="203" y="0"/>
      <point x="389" y="0" type="curve"/>
      <point x="501" y="0"/>
      <point x="587" y="31"/>
      <point x="654" y="119" type="curve"/>
      <point x="639" y="134"/>
      <point x="654" y="119"/>
      <point x="639" y="134" type="curve"/>
      <point x="574" y="52"/>
      <point x="493" y="22"/>
      <point x="388" y="22" type="curve"/>
      <point x="216" y="22"/>
      <point x="84" y="105"/>
      <point x="84" y="265" type="curve"/>
      <point x="84" y="425"/>
      <point x="215" y="511"/>
      <point x="387" y="511" type="curve"/>
      <point x="486" y="511"/>
      <point x="569" y="493"/>
      <point x="639" y="432" type="curve"/>
    </contour>
    <contour>
      <point x="659" y="0"/>
      <point x="634" y="0"/>
      <point x="659" y="0" type="curve"/>
      <point x="659" y="267"/>
      <point x="659" y="533"/>
      <point x="659" y="800" type="curve"/>
      <point x="634" y="800"/>
      <point x="659" y="800"/>
      <point x="634" y="800" type="curve"/>
      <point x="634" y="533"/>
      <point x="634" y="267"/>
      <point x="634" y="0" type="curve"/>
    </contour>
  </outline>
</glyph>
<glyph name="e" format="1">
  <advance width="661"/>
  <unicode hex="0065"/>
  <outline>
    <contour>
      <point x="73" y="273"/>
      <point x="73" y="295"/>
      <point x="73" y="273" type="curve"/>
      <point x="249" y="273"/>
      <point x="425" y="273"/>
      <point x="601" y="273" type="curve"/>
      <point x="601" y="273"/>
      <point x="601" y="273"/>
      <point x="601" y="273" type="curve"/>
      <point x="601" y="276"/>
      <point x="601" y="273"/>
      <point x="601" y="276" type="curve"/>
      <point x="601" y="285"/>
      <point x="601" y="294"/>
      <point x="601" y="303" type="curve"/>
      <point x="601" y="458"/>
      <point x="498" y="533"/>
      <point x="338" y="533" type="curve"/>
      <point x="167" y="533"/>
      <point x="60" y="448"/>
      <point x="60" y="281" type="curve"/>
      <point x="60" y="95"/>
      <point x="181" y="0"/>
      <point x="372" y="0" type="curve"/>
      <point x="464" y="0"/>
      <point x="525" y="18"/>
      <point x="600" y="74" type="curve"/>
      <point x="584" y="90"/>
      <point x="600" y="74"/>
      <point x="584" y="90" type="curve"/>
      <point x="515" y="39"/>
      <point x="457" y="22"/>
      <point x="372" y="22" type="curve"/>
      <point x="197" y="22"/>
      <point x="84" y="110"/>
      <point x="84" y="281" type="curve"/>
      <point x="84" y="433"/>
      <point x="182" y="511"/>
      <point x="337" y="511" type="curve"/>
      <point x="483" y="511"/>
      <point x="578" y="445"/>
      <point x="578" y="305" type="curve"/>
      <point x="578" y="295"/>
      <point x="578" y="286"/>
      <point x="578" y="276" type="curve"/>
      <point x="583" y="279"/>
      <point x="586" y="282"/>
      <point x="591" y="285" type="curve"/>
      <point x="594" y="288"/>
      <point x="597" y="292"/>
      <point x="601" y="295" type="curve"/>
      <point x="425" y="295"/>
      <point x="249" y="295"/>
      <point x="73" y="295" type="curve"/>
    </contour>
  </outline>
</glyph>
<glyph name="f" format="1">
  <advance width="698"/>
  <unicode hex="0066"/>
  <outline>
    <contour>
      <point x="616" y="772"/>
      <point x="638" y="772"/>
      <point x="616" y="772" type="curve"/>
      <point x="616" y="772"/>
      <point x="616" y="772"/>
      <point x="616" y="772" type="curve"/>
      <point x="638" y="772"/>
      <point x="616" y="772"/>
      <point x="638" y="772" type="curve"/>
      <point x="638" y="772"/>
      <point x="638" y="772"/>
      <point x="638" y="772" type="curve"/>
    </contour>
    <contour>
      <point x="310" y="0"/>
      <point x="310" y="22"/>
      <point x="310" y="0" type="curve"/>
      <point x="310" y="0"/>
      <point x="310" y="0"/>
      <point x="310" y="0" type="curve"/>
      <point x="310" y="22"/>
      <point x="310" y="0"/>
      <point x="310" y="22" type="curve"/>
      <point x="310" y="22"/>
      <point x="310" y="22"/>
      <point x="310" y="22" type="curve"/>
    </contour>
    <contour>
      <point x="310" y="22"/>
      <point x="310" y="0"/>
      <point x="310" y="22" type="curve"/>
      <point x="310" y="22"/>
      <point x="310" y="22"/>
      <point x="310" y="22" type="curve"/>
      <point x="310" y="0"/>
      <point x="310" y="22"/>
      <point x="310" y="0" type="curve"/>
      <point x="310" y="0"/>
      <point x="310" y="0"/>
      <point x="310" y="0" type="curve"/>
    </contour>
    <contour>
      <point x="60" y="487"/>
      <point x="60" y="509"/>
      <point x="60" y="487" type="curve"/>
      <point x="60" y="487"/>
      <point x="628" y="487"/>
      <point x="628" y="487" type="curve"/>
      <point x="628" y="509"/>
      <point x="628" y="487"/>
      <point x="628" y="509" type="curve"/>
      <point x="628" y="509"/>
      <point x="60" y="509"/>
      <point x="60" y="509" type="curve"/>
    </contour>
    <contour>
      <point x="322" y="0"/>
      <point x="298" y="0"/>
      <point x="322" y="0" type="curve"/>
      <point x="322" y="0"/>
      <point x="322" y="640"/>
      <point x="322" y="640" type="curve"/>
      <point x="322" y="735"/>
      <point x="394" y="783"/>
      <point x="495" y="783" type="curve"/>
      <point x="540" y="783"/>
      <point x="586" y="770"/>
      <point x="628" y="755" type="curve"/>
      <point x="638" y="772"/>
      <point x="628" y="755"/>
      <point x="638" y="772" type="curve"/>
      <point x="592" y="789"/>
      <point x="543" y="800"/>
      <point x="495" y="800" type="curve"/>
      <point x="381" y="800"/>
      <point x="296" y="746"/>
      <point x="298" y="640" type="curve"/>
      <point x="298" y="640"/>
      <point x="298" y="0"/>
      <point x="298" y="0" type="curve"/>
    </contour>
  </outline>
</glyph>
<glyph name="n" format="1">
  <advance width="647"/>
  <unicode hex="006E"/>
  <outline>
    <contour>
      <point x="79" y="354"/>
      <point x="67" y="365"/>
      <point x="79" y="354" type="curve"/>
      <point x="129" y="455"/>
      <point x="239" y="511"/>
      <point x="353" y="511" type="curve"/>
      <point x="480" y="511"/>
      <point x="562" y="458"/>
      <point x="562" y="341" type="curve"/>
      <point x="562" y="228"/>
      <point x="562" y="114"/>
      <point x="562" y="0" type="curve"/>
      <point x="586" y="0"/>
      <point x="562" y="0"/>
      <point x="586" y="0" type="curve"/>
      <point x="586" y="115"/>
      <point x="586" y="229"/>
      <point x="586" y="344" type="curve"/>
      <point x="586" y="474"/>
      <point x="498" y="533"/>
      <point x="359" y="533" type="curve"/>
      <point x="234" y="533"/>
      <point x="112" y="478"/>
      <point x="67" y="365" type="curve"/>
    </contour>
    <contour>
      <point x="573" y="0"/>
      <point x="573" y="22"/>
      <point x="573" y="0" type="curve"/>
      <point x="573" y="0"/>
      <point x="573" y="0"/>
      <point x="573" y="0" type="curve"/>
      <point x="573" y="22"/>
      <point x="573" y="0"/>
      <point x="573" y="22" type="curve"/>
      <point x="573" y="22"/>
      <point x="573" y="22"/>
      <point x="573" y="22" type="curve"/>
    </contour>
    <contour>
      <point x="72" y="22"/>
      <point x="72" y="0"/>
      <point x="72" y="22" type="curve"/>
      <point x="72" y="22"/>
      <point x="72" y="22"/>
      <point x="72" y="22" type="curve"/>
      <point x="72" y="0"/>
      <point x="72" y="22"/>
      <point x="72" y="0" type="curve"/>
      <point x="72" y="0"/>
      <point x="72" y="0"/>
      <point x="72" y="0" type="curve"/>
    </contour>
    <contour>
      <point x="72" y="0"/>
      <point x="72" y="22"/>
      <point x="72" y="0" type="curve"/>
      <point x="72" y="0"/>
      <point x="72" y="0"/>
      <point x="72" y="0" type="curve"/>
      <point x="72" y="22"/>
      <point x="72" y="0"/>
      <point x="72" y="22" type="curve"/>
      <point x="72" y="22"/>
      <point x="72" y="22"/>
      <point x="72" y="22" type="curve"/>
    </contour>
    <contour>
      <point x="84" y="0"/>
      <point x="60" y="0"/>
      <point x="84" y="0" type="curve"/>
      <point x="84" y="178"/>
      <point x="84" y="355"/>
      <point x="84" y="533" type="curve"/>
      <point x="60" y="533"/>
      <point x="84" y="533"/>
      <point x="60" y="533" type="curve"/>
      <point x="60" y="355"/>
      <point x="60" y="178"/>
      <point x="60" y="0" type="curve"/>
    </contour>
    <contour>
      <point x="72" y="533"/>
      <point x="72" y="511"/>
      <point x="72" y="533" type="curve"/>
      <point x="72" y="533"/>
      <point x="72" y="533"/>
      <point x="72" y="533" type="curve"/>
      <point x="72" y="511"/>
      <point x="72" y="533"/>
      <point x="72" y="511" type="curve"/>
      <point x="72" y="511"/>
      <point x="72" y="511"/>
      <point x="72" y="511" type="curve"/>
    </contour>
    <contour>
      <point x="573" y="22"/>
      <point x="573" y="0"/>
      <point x="573" y="22" type="curve"/>
      <point x="573" y="22"/>
      <point x="573" y="22"/>
      <point x="573" y="22" type="curve"/>
      <point x="573" y="0"/>
      <point x="573" y="22"/>
      <point x="573" y="0" type="curve"/>
      <point x="573" y="0"/>
      <point x="573" y="0"/>
      <point x="573" y="0" type="curve"/>
    </contour>
  </outline>
</glyph>
<glyph name="p" format="1">
  <advance width="712"/>
  <unicode hex="0070"/>
  <outline>
    <contour>
      <point x="72" y="-279"/>
      <point x="72" y="-300"/>
      <point x="72" y="-279" type="curve"/>
      <point x="72" y="-279"/>
      <point x="72" y="-279"/>
      <point x="72" y="-279" type="curve"/>
      <point x="72" y="-300"/>
      <point x="72" y="-279"/>
      <point x="72" y="-300" type="curve"/>
      <point x="72" y="-300"/>
      <point x="72" y="-300"/>
      <point x="72" y="-300" type="curve"/>
    </contour>
    <contour>
      <point x="72" y="-300"/>
      <point x="72" y="-279"/>
      <point x="72" y="-300" type="curve"/>
      <point x="72" y="-300"/>
      <point x="72" y="-300"/>
      <point x="72" y="-300" type="curve"/>
      <point x="72" y="-279"/>
      <point x="72" y="-300"/>
      <point x="72" y="-279" type="curve"/>
      <point x="72" y="-279"/>
      <point x="72" y="-279"/>
      <point x="72" y="-279" type="curve"/>
    </contour>
    <contour>
      <point x="73" y="533"/>
      <point x="73" y="511"/>
      <point x="73" y="533" type="curve"/>
      <point x="73" y="533"/>
      <point x="73" y="533"/>
      <point x="73" y="533" type="curve"/>
      <point x="73" y="511"/>
      <point x="73" y="533"/>
      <point x="73" y="511" type="curve"/>
      <point x="73" y="511"/>
      <point x="73" y="511"/>
      <point x="73" y="511" type="curve"/>
    </contour>
    <contour>
      <point x="77" y="409"/>
      <point x="66" y="424"/>
      <point x="77" y="409" type="curve"/>
      <point x="136" y="463"/>
      <point x="242" y="511"/>
      <point x="360" y="511" type="curve"/>
      <point x="517" y="511"/>
      <point x="627" y="416"/>
      <point x="627" y="263" type="curve"/>
      <point x="631" y="111"/>
      <point x="516" y="20"/>
      <point x="358" y="21" type="curve"/>
      <point x="250" y="21"/>
      <point x="166" y="42"/>
      <point x="80" y="108" type="curve"/>
      <point x="65" y="96"/>
      <point x="80" y="108"/>
      <point x="65" y="96" type="curve"/>
      <point x="154" y="22"/>
      <point x="243" y="-1"/>
      <point x="359" y="-1" type="curve"/>
      <point x="529" y="-1"/>
      <point x="652" y="100"/>
      <point x="651" y="264" type="curve"/>
      <point x="651" y="429"/>
      <point x="531" y="533"/>
      <point x="362" y="533" type="curve"/>
      <point x="239" y="533"/>
      <point x="129" y="482"/>
      <point x="66" y="424" type="curve"/>
    </contour>
    <contour>
      <point x="84" y="-300"/>
      <point x="60" y="-300"/>
      <point x="84" y="-300" type="curve"/>
      <point x="84" y="-22"/>
      <point x="84" y="255"/>
      <point x="84" y="533" type="curve"/>
      <point x="60" y="533"/>
      <point x="84" y="533"/>
      <point x="60" y="533" type="curve"/>
      <point x="60" y="255"/>
      <point x="60" y="-22"/>
      <point x="60" y="-300" type="curve"/>
    </contour>
  </outline>
</glyph>
<glyph name="q" format="1">
  <advance width="718"/>
  <unicode hex="0071"/>
  <outline>
    <contour>
      <point x="647" y="511"/>
      <point x="647" y="533"/>
      <point x="647" y="511" type="curve"/>
      <point x="647" y="511"/>
      <point x="647" y="511"/>
      <point x="647" y="511" type="curve"/>
      <point x="647" y="533"/>
      <point x="647" y="511"/>
      <point x="647" y="533" type="curve"/>
      <point x="647" y="533"/>
      <point x="647" y="533"/>
      <point x="647" y="533" type="curve"/>
    </contour>
    <contour>
      <point x="647" y="-279"/>
      <point x="647" y="-300"/>
      <point x="647" y="-279" type="curve"/>
      <point x="647" y="-279"/>
      <point x="647" y="-279"/>
      <point x="647" y="-279" type="curve"/>
      <point x="647" y="-300"/>
      <point x="647" y="-279"/>
      <point x="647" y="-300" type="curve"/>
      <point x="647" y="-300"/>
      <point x="647" y="-300"/>
      <point x="647" y="-300" type="curve"/>
    </contour>
    <contour>
      <point x="647" y="-300"/>
      <point x="647" y="-279"/>
      <point x="647" y="-300" type="curve"/>
      <point x="647" y="-300"/>
      <point x="647" y="-300"/>
      <point x="647" y="-300" type="curve"/>
      <point x="647" y="-279"/>
      <point x="647" y="-300"/>
      <point x="647" y="-279" type="curve"/>
      <point x="647" y="-279"/>
      <point x="647" y="-279"/>
      <point x="647" y="-279" type="curve"/>
    </contour>
    <contour>
      <point x="653" y="444"/>
      <point x="642" y="431"/>
      <point x="653" y="444" type="curve"/>
      <point x="563" y="500"/>
      <point x="463" y="533"/>
      <point x="357" y="533" type="curve"/>
      <point x="182" y="533"/>
      <point x="60" y="433"/>
      <point x="60" y="264" type="curve"/>
      <point x="60" y="95"/>
      <point x="186" y="-1"/>
      <point x="361" y="-1" type="curve"/>
      <point x="472" y="-1"/>
      <point x="579" y="43"/>
      <point x="651" y="121" type="curve"/>
      <point x="638" y="133"/>
      <point x="651" y="121"/>
      <point x="638" y="133" type="curve"/>
      <point x="567" y="57"/>
      <point x="466" y="21"/>
      <point x="361" y="21" type="curve"/>
      <point x="200" y="21"/>
      <point x="84" y="110"/>
      <point x="84" y="265" type="curve"/>
      <point x="84" y="420"/>
      <point x="197" y="511"/>
      <point x="358" y="511" type="curve"/>
      <point x="458" y="511"/>
      <point x="553" y="481"/>
      <point x="642" y="431" type="curve"/>
    </contour>
    <contour>
      <point x="658" y="-300"/>
      <point x="633" y="-300"/>
      <point x="658" y="-300" type="curve"/>
      <point x="658" y="-22"/>
      <point x="658" y="255"/>
      <point x="658" y="533" type="curve"/>
      <point x="633" y="533"/>
      <point x="658" y="533"/>
      <point x="633" y="533" type="curve"/>
      <point x="633" y="255"/>
      <point x="633" y="-22"/>
      <point x="633" y="-300" type="curve"/>
    </contour>
  </outline>
</glyph>
<glyph name="r" format="1">
  <advance width="468"/>
  <unicode hex="0072"/>
  <outline>
    <contour>
      <point x="72" y="0"/>
      <point x="72" y="22"/>
      <point x="72" y="0" type="curve"/>
      <point x="72" y="0"/>
      <point x="72" y="0"/>
      <point x="72" y="0" type="curve"/>
      <point x="72" y="22"/>
      <point x="72" y="0"/>
      <point x="72" y="22" type="curve"/>
      <point x="72" y="22"/>
      <point x="72" y="22"/>
      <point x="72" y="22" type="curve"/>
    </contour>
    <contour>
      <point x="72" y="22"/>
      <point x="72" y="0"/>
      <point x="72" y="22" type="curve"/>
      <point x="72" y="22"/>
      <point x="72" y="22"/>
      <point x="72" y="22" type="curve"/>
      <point x="72" y="0"/>
      <point x="72" y="22"/>
      <point x="72" y="0" type="curve"/>
      <point x="72" y="0"/>
      <point x="72" y="0"/>
      <point x="72" y="0" type="curve"/>
    </contour>
    <contour>
      <point x="71" y="533"/>
      <point x="71" y="511"/>
      <point x="71" y="533" type="curve"/>
      <point x="71" y="533"/>
      <point x="71" y="533"/>
      <point x="71" y="533" type="curve"/>
      <point x="71" y="511"/>
      <point x="71" y="533"/>
      <point x="71" y="511" type="curve"/>
      <point x="71" y="511"/>
      <point x="71" y="511"/>
      <point x="71" y="511" type="curve"/>
    </contour>
    <contour>
      <point x="84" y="0"/>
      <point x="60" y="0"/>
      <point x="84" y="0" type="curve"/>
      <point x="84" y="178"/>
      <point x="84" y="355"/>
      <point x="84" y="533" type="curve"/>
      <point x="60" y="533"/>
      <point x="84" y="533"/>
      <point x="60" y="533" type="curve"/>
      <point x="60" y="355"/>
      <point x="60" y="178"/>
      <point x="60" y="0" type="curve"/>
    </contour>
    <contour>
      <point x="78" y="402"/>
      <point x="71" y="411"/>
      <point x="78" y="402" type="curve"/>
      <point x="158" y="507"/>
      <point x="275" y="511"/>
      <point x="408" y="511" type="curve"/>
      <point x="408" y="538"/>
      <point x="408" y="511"/>
      <point x="408" y="538" type="curve"/>
      <point x="269" y="538"/>
      <point x="148" y="524"/>
      <point x="71" y="411" type="curve"/>
    </contour>
  </outline>
</glyph>
<glyph name="t" format="1">
  <advance width="648"/>
  <unicode hex="0074"/>
  <outline>
    <contour>
      <point x="60" y="476"/>
      <point x="60" y="498"/>
      <point x="60" y="476" type="curve"/>
      <point x="60" y="476"/>
      <point x="588" y="476"/>
      <point x="588" y="476" type="curve"/>
      <point x="588" y="498"/>
      <point x="588" y="476"/>
      <point x="588" y="498" type="curve"/>
      <point x="588" y="498"/>
      <point x="60" y="498"/>
      <point x="60" y="498" type="curve"/>
    </contour>
    <contour>
      <point x="557" y="46"/>
      <point x="566" y="28"/>
      <point x="557" y="46" type="curve"/>
      <point x="510" y="27"/>
      <point x="474" y="22"/>
      <point x="423" y="22" type="curve"/>
      <point x="333" y="22"/>
      <point x="280" y="57"/>
      <point x="280" y="145" type="curve"/>
      <point x="280" y="145"/>
      <point x="280" y="651"/>
      <point x="280" y="651" type="curve"/>
      <point x="256" y="637"/>
      <point x="280" y="651"/>
      <point x="256" y="637" type="curve"/>
      <point x="256" y="637"/>
      <point x="256" y="143"/>
      <point x="256" y="143" type="curve"/>
      <point x="256" y="42"/>
      <point x="319" y="-5"/>
      <point x="421" y="-5" type="curve"/>
      <point x="476" y="-5"/>
      <point x="514" y="9"/>
      <point x="566" y="28" type="curve"/>
    </contour>
  </outline>
</glyph>
<glyph name="u" format="1">
  <advance width="637"/>
  <unicode hex="0075"/>
  <outline>
    <contour>
      <point x="565" y="533"/>
      <point x="565" y="511"/>
      <point x="565" y="533" type="curve"/>
      <point x="565" y="533"/>
      <point x="565" y="533"/>
      <point x="565" y="533" type="curve"/>
      <point x="565" y="511"/>
      <point x="565" y="533"/>
      <point x="565" y="511" type="curve"/>
      <point x="565" y="511"/>
      <point x="565" y="511"/>
      <point x="565" y="511" type="curve"/>
    </contour>
    <contour>
      <point x="72" y="533"/>
      <point x="72" y="511"/>
      <point x="72" y="533" type="curve"/>
      <point x="72" y="533"/>
      <point x="72" y="533"/>
      <point x="72" y="533" type="curve"/>
      <point x="72" y="511"/>
      <point x="72" y="533"/>
      <point x="72" y="511" type="curve"/>
      <point x="72" y="511"/>
      <point x="72" y="511"/>
      <point x="72" y="511" type="curve"/>
    </contour>
    <contour>
      <point x="565" y="-1"/>
      <point x="565" y="21"/>
      <point x="565" y="-1" type="curve"/>
      <point x="565" y="-1"/>
      <point x="565" y="-1"/>
      <point x="565" y="-1" type="curve"/>
      <point x="565" y="21"/>
      <point x="565" y="-1"/>
      <point x="565" y="21" type="curve"/>
      <point x="565" y="21"/>
      <point x="565" y="21"/>
      <point x="565" y="21" type="curve"/>
    </contour>
    <contour>
      <point x="577" y="0"/>
      <point x="553" y="0"/>
      <point x="577" y="0" type="curve"/>
      <point x="577" y="178"/>
      <point x="577" y="355"/>
      <point x="577" y="533" type="curve"/>
      <point x="553" y="533"/>
      <point x="577" y="533"/>
      <point x="553" y="533" type="curve"/>
      <point x="553" y="355"/>
      <point x="553" y="178"/>
      <point x="553" y="0" type="curve"/>
    </contour>
    <contour>
      <point x="557" y="161"/>
      <point x="573" y="151"/>
      <point x="557" y="161" type="curve"/>
      <point x="503" y="81"/>
      <point x="404" y="22"/>
      <point x="301" y="22" type="curve"/>
      <point x="171" y="22"/>
      <point x="84" y="68"/>
      <point x="84" y="187" type="curve"/>
      <point x="84" y="302"/>
      <point x="84" y="418"/>
      <point x="84" y="533" type="curve"/>
      <point x="60" y="533"/>
      <point x="84" y="533"/>
      <point x="60" y="533" type="curve"/>
      <point x="60" y="417"/>
      <point x="60" y="301"/>
      <point x="60" y="185" type="curve"/>
      <point x="60" y="52"/>
      <point x="155" y="0"/>
      <point x="299" y="0" type="curve"/>
      <point x="410" y="0"/>
      <point x="517" y="64"/>
      <point x="573" y="151" type="curve"/>
    </contour>
  </outline>
</glyph>
<glyph name="v" format="1">
  <advance width="725"/>
  <unicode hex="0076"/>
  <outline>
    <contour>
      <point x="87" y="533"/>
      <point x="87" y="511"/>
      <point x="87" y="533" type="curve"/>
      <point x="87" y="533"/>
      <point x="87" y="533"/>
      <point x="87" y="533" type="curve"/>
      <point x="87" y="511"/>
      <point x="87" y="533"/>
      <point x="87" y="511" type="curve"/>
      <point x="87" y="511"/>
      <point x="87" y="511"/>
      <point x="87" y="511" type="curve"/>
    </contour>
    <contour>
      <point x="87" y="511"/>
      <point x="87" y="533"/>
      <point x="87" y="511" type="curve"/>
      <point x="87" y="511"/>
      <point x="87" y="511"/>
      <point x="87" y="511" type="curve"/>
      <point x="87" y="533"/>
      <point x="87" y="511"/>
      <point x="87" y="533" type="curve"/>
      <point x="87" y="533"/>
      <point x="87" y="533"/>
      <point x="87" y="533" type="curve"/>
    </contour>
    <contour>
      <point x="639" y="533"/>
      <point x="639" y="511"/>
      <point x="639" y="533" type="curve"/>
      <point x="639" y="533"/>
      <point x="639" y="533"/>
      <point x="639" y="533" type="curve"/>
      <point x="639" y="511"/>
      <point x="639" y="533"/>
      <point x="639" y="511" type="curve"/>
      <point x="639" y="511"/>
      <point x="639" y="511"/>
      <point x="639" y="511" type="curve"/>
    </contour>
    <contour>
      <point x="639" y="511"/>
      <point x="639" y="533"/>
      <point x="639" y="511" type="curve"/>
      <point x="639" y="511"/>
      <point x="639" y="511"/>
      <point x="639" y="511" type="curve"/>
      <point x="639" y="533"/>
      <point x="639" y="511"/>
      <point x="639" y="533" type="curve"/>
      <point x="639" y="533"/>
      <point x="639" y="533"/>
      <point x="639" y="533" type="curve"/>
    </contour>
    <contour>
      <point x="60" y="533"/>
      <point x="86" y="533"/>
      <point x="60" y="533" type="curve"/>
      <point x="154" y="355"/>
      <point x="247" y="178"/>
      <point x="340" y="0" type="curve"/>
      <point x="365" y="0"/>
      <point x="340" y="0"/>
      <point x="365" y="0" type="curve"/>
      <point x="272" y="178"/>
      <point x="179" y="355"/>
      <point x="86" y="533" type="curve"/>
    </contour>
    <contour>
      <point x="640" y="533"/>
      <point x="666" y="533"/>
      <point x="640" y="533" type="curve"/>
      <point x="640" y="533"/>
      <point x="346" y="0"/>
      <point x="346" y="0" type="curve"/>
      <point x="371" y="0"/>
      <point x="346" y="0"/>
      <point x="371" y="0" type="curve"/>
      <point x="469" y="178"/>
      <point x="567" y="355"/>
      <point x="666" y="533" type="curve"/>
    </contour>
  </outline>
</glyph>
<glyph name="y" format="1">
  <advance width="727"/>
  <unicode hex="0079"/>
  <outline>
    <contour>
      <point x="122" y="-279"/>
      <point x="122" y="-300"/>
      <point x="122" y="-279" type="curve"/>
      <point x="122" y="-279"/>
      <point x="122" y="-279"/>
      <point x="122" y="-279" type="curve"/>
      <point x="122" y="-300"/>
      <point x="122" y="-279"/>
      <point x="122" y="-300" type="curve"/>
      <point x="122" y="-300"/>
      <point x="122" y="-300"/>
      <point x="122" y="-300" type="curve"/>
    </contour>
    <contour>
      <point x="91" y="533"/>
      <point x="91" y="511"/>
      <point x="91" y="533" type="curve"/>
      <point x="91" y="533"/>
      <point x="91" y="533"/>
      <point x="91" y="533" type="curve"/>
      <point x="91" y="511"/>
      <point x="91" y="533"/>
      <point x="91" y="511" type="curve"/>
      <point x="91" y="511"/>
      <point x="91" y="511"/>
      <point x="91" y="511" type="curve"/>
    </contour>
    <contour>
      <point x="91" y="511"/>
      <point x="91" y="533"/>
      <point x="91" y="511" type="curve"/>
      <point x="91" y="511"/>
      <point x="91" y="511"/>
      <point x="91" y="511" type="curve"/>
      <point x="91" y="533"/>
      <point x="91" y="511"/>
      <point x="91" y="533" type="curve"/>
      <point x="91" y="533"/>
      <point x="91" y="533"/>
      <point x="91" y="533" type="curve"/>
    </contour>
    <contour>
      <point x="637" y="533"/>
      <point x="637" y="511"/>
      <point x="637" y="533" type="curve"/>
      <point x="637" y="533"/>
      <point x="637" y="533"/>
      <point x="637" y="533" type="curve"/>
      <point x="637" y="511"/>
      <point x="637" y="533"/>
      <point x="637" y="511" type="curve"/>
      <point x="637" y="511"/>
      <point x="637" y="511"/>
      <point x="637" y="511" type="curve"/>
    </contour>
    <contour>
      <point x="637" y="511"/>
      <point x="637" y="533"/>
      <point x="637" y="511" type="curve"/>
      <point x="637" y="511"/>
      <point x="637" y="511"/>
      <point x="637" y="511" type="curve"/>
      <point x="637" y="533"/>
      <point x="637" y="511"/>
      <point x="637" y="533" type="curve"/>
      <point x="637" y="533"/>
      <point x="637" y="533"/>
      <point x="637" y="533" type="curve"/>
    </contour>
    <contour>
      <point x="365" y="77"/>
      <point x="342" y="77"/>
      <point x="365" y="77" type="curve"/>
      <point x="272" y="229"/>
      <point x="180" y="381"/>
      <point x="88" y="533" type="curve"/>
      <point x="60" y="533"/>
      <point x="88" y="533"/>
      <point x="60" y="533" type="curve"/>
      <point x="154" y="381"/>
      <point x="248" y="229"/>
      <point x="342" y="77" type="curve"/>
    </contour>
    <contour>
      <point x="119" y="-300"/>
      <point x="91" y="-300"/>
      <point x="119" y="-300" type="curve"/>
      <point x="301" y="-22"/>
      <point x="484" y="255"/>
      <point x="667" y="533" type="curve"/>
      <point x="640" y="533"/>
      <point x="667" y="533"/>
      <point x="640" y="533" type="curve"/>
      <point x="457" y="255"/>
      <point x="274" y="-22"/>
      <point x="91" y="-300" type="curve"/>
    </contour>
  </outline>
</glyph>
<glyph name="z" format="1">
  <advance width="700"/>
  <unicode hex="007A"/>
  <outline>
    <contour>
      <point x="63" y="511"/>
      <point x="63" y="533"/>
      <point x="63" y="511" type="curve"/>
      <point x="233" y="511"/>
      <point x="404" y="511"/>
      <point x="574" y="511" type="curve"/>
      <point x="572" y="514"/>
      <point x="569" y="515"/>
      <point x="567" y="518" type="curve"/>
      <point x="565" y="520"/>
      <point x="563" y="521"/>
      <point x="561" y="523" type="curve"/>
      <point x="557" y="520"/>
      <point x="554" y="516"/>
      <point x="550" y="512" type="curve"/>
      <point x="387" y="348"/>
      <point x="550" y="512"/>
      <point x="60" y="22" type="curve"/>
      <point x="60" y="10"/>
      <point x="60" y="22"/>
      <point x="60" y="10" type="curve"/>
      <point x="60" y="0"/>
      <point x="60" y="10"/>
      <point x="60" y="0" type="curve"/>
      <point x="65" y="0"/>
      <point x="60" y="0"/>
      <point x="65" y="0" type="curve"/>
      <point x="640" y="0"/>
      <point x="448" y="0"/>
      <point x="640" y="0" type="curve"/>
      <point x="640" y="22"/>
      <point x="640" y="0"/>
      <point x="640" y="22" type="curve"/>
      <point x="448" y="22"/>
      <point x="256" y="22"/>
      <point x="65" y="22" type="curve"/>
      <point x="67" y="20"/>
      <point x="69" y="18"/>
      <point x="71" y="16" type="curve"/>
      <point x="73" y="14"/>
      <point x="77" y="12"/>
      <point x="79" y="10" type="curve"/>
      <point x="82" y="13"/>
      <point x="86" y="17"/>
      <point x="90" y="21" type="curve"/>
      <point x="253" y="185"/>
      <point x="90" y="21"/>
      <point x="581" y="511" type="curve"/>
      <point x="581" y="523"/>
      <point x="581" y="511"/>
      <point x="581" y="523" type="curve"/>
      <point x="581" y="533"/>
      <point x="581" y="523"/>
      <point x="581" y="533" type="curve"/>
      <point x="574" y="533"/>
      <point x="581" y="533"/>
      <point x="574" y="533" type="curve"/>
      <point x="404" y="533"/>
      <point x="233" y="533"/>
      <point x="63" y="533" type="curve"/>
    </contour>
    <contour>
      <point x="63" y="522"/>
      <point x="85" y="522"/>
      <point x="63" y="522" type="curve"/>
      <point x="63" y="522"/>
      <point x="63" y="522"/>
      <point x="63" y="522" type="curve"/>
      <point x="85" y="522"/>
      <point x="63" y="522"/>
      <point x="85" y="522" type="curve"/>
      <point x="85" y="522"/>
      <point x="85" y="522"/>
      <point x="85" y="522" type="curve"/>
    </contour>
    <contour>
      <point x="640" y="11"/>
      <point x="618" y="11"/>
      <point x="640" y="11" type="curve"/>
      <point x="640" y="11"/>
      <point x="640" y="11"/>
      <point x="640" y="11" type="curve"/>
      <point x="618" y="11"/>
      <point x="640" y="11"/>
      <point x="618" y="11" type="curve"/>
      <point x="618" y="11"/>
      <point x="618" y="11"/>
      <point x="618" y="11" type="curve"/>
    </contour>
  </outline>
</glyph>
<glyph name="braceleft" format="1">
  <advance width="432"/>
  <unicode hex="007B"/>
  <outline>
    <contour>
      <point x="372" y="-103"/>
      <point x="372" y="-125"/>
      <point x="372" y="-103" type="curve"/>
      <point x="285" y="-103"/>
      <point x="226" y="-58"/>
      <point x="226" y="25" type="curve"/>
      <point x="226" y="84"/>
      <point x="226" y="144"/>
      <point x="226" y="203" type="curve"/>
      <point x="226" y="297"/>
      <point x="158" y="350"/>
      <point x="60" y="350" type="curve"/>
      <point x="60" y="327"/>
      <point x="60" y="350"/>
      <point x="60" y="327" type="curve"/>
      <point x="144" y="327"/>
      <point x="204" y="285"/>
      <point x="204" y="205" type="curve"/>
      <point x="204" y="145"/>
      <point x="204" y="86"/>
      <point x="204" y="26" type="curve"/>
      <point x="204" y="-71"/>
      <point x="272" y="-125"/>
      <point x="372" y="-125" type="curve"/>
    </contour>
    <contour>
      <point x="372" y="801"/>
      <point x="372" y="779"/>
      <point x="372" y="801" type="curve"/>
      <point x="272" y="801"/>
      <point x="204" y="748"/>
      <point x="204" y="651" type="curve"/>
      <point x="204" y="591"/>
      <point x="204" y="530"/>
      <point x="204" y="470" type="curve"/>
      <point x="204" y="390"/>
      <point x="144" y="350"/>
      <point x="60" y="350" type="curve"/>
      <point x="60" y="327"/>
      <point x="60" y="350"/>
      <point x="60" y="327" type="curve"/>
      <point x="158" y="327"/>
      <point x="226" y="378"/>
      <point x="226" y="473" type="curve"/>
      <point x="226" y="532"/>
      <point x="226" y="592"/>
      <point x="226" y="651" type="curve"/>
      <point x="226" y="734"/>
      <point x="285" y="779"/>
      <point x="372" y="779" type="curve"/>
    </contour>
  </outline>
</glyph>
<glyph name="braceright" format="1">
  <advance width="432"/>
  <unicode hex="007D"/>
  <outline>
    <contour>
      <point x="60" y="-125"/>
      <point x="60" y="-103"/>
      <point x="60" y="-125" type="curve"/>
      <point x="160" y="-125"/>
      <point x="228" y="-71"/>
      <point x="228" y="26" type="curve"/>
      <point x="228" y="86"/>
      <point x="228" y="145"/>
      <point x="228" y="205" type="curve"/>
      <point x="228" y="285"/>
      <point x="288" y="327"/>
      <point x="372" y="327" type="curve"/>
      <point x="372" y="350"/>
      <point x="372" y="327"/>
      <point x="372" y="350" type="curve"/>
      <point x="274" y="350"/>
      <point x="206" y="297"/>
      <point x="206" y="203" type="curve"/>
      <point x="206" y="144"/>
      <point x="206" y="84"/>
      <point x="206" y="25" type="curve"/>
      <point x="206" y="-58"/>
      <point x="147" y="-103"/>
      <point x="60" y="-103" type="curve"/>
    </contour>
    <contour>
      <point x="60" y="779"/>
      <point x="60" y="801"/>
      <point x="60" y="779" type="curve"/>
      <point x="147" y="779"/>
      <point x="206" y="734"/>
      <point x="206" y="651" type="curve"/>
      <point x="206" y="592"/>
      <point x="206" y="532"/>
      <point x="206" y="473" type="curve"/>
      <point x="206" y="378"/>
      <point x="274" y="327"/>
      <point x="372" y="327" type="curve"/>
      <point x="372" y="350"/>
      <point x="372" y="327"/>
      <point x="372" y="350" type="curve"/>
      <point x="288" y="350"/>
      <point x="228" y="390"/>
      <point x="228" y="470" type="curve"/>
      <point x="228" y="530"/>
      <point x="228" y="591"/>
      <point x="228" y="651" type="curve"/>
      <point x="228" y="748"/>
      <point x="160" y="801"/>
      <point x="60" y="801" type="curve"/>
    </contour>
  </outline>
</glyph>
<glyph name="aadeva" format="1">
  <advance width="1509"/>
  <unicode hex="0906"/>
  <outline>
    <contour>
      <point x="82" y="122"/>
      <point x="60" y="122"/>
      <point x="82" y="122" type="curve"/>
      <point x="82" y="122"/>
      <point x="82" y="122"/>
      <point x="82" y="122" type="curve"/>
      <point x="60" y="122"/>
      <point x="82" y="122"/>
      <point x="60" y="122" type="curve"/>
      <point x="60" y="122"/>
      <point x="60" y="122"/>
      <point x="60" y="122" type="curve"/>
    </contour>
    <contour>
      <point x="883" y="420"/>
      <point x="891" y="404"/>
      <point x="883" y="420" type="curve"/>
      <point x="689" y="353"/>
      <point x="535" y="367"/>
      <point x="331" y="391" type="curve"/>
      <point x="325" y="378"/>
      <point x="331" y="391"/>
      <point x="325" y="378" type="curve"/>
      <point x="537" y="349"/>
      <point x="696" y="323"/>
      <point x="891" y="404" type="curve"/>
    </contour>
    <contour>
      <point x="62" y="122"/>
      <point x="79" y="136"/>
      <point x="62" y="122" type="curve"/>
      <point x="132" y="60"/>
      <point x="223" y="32"/>
      <point x="317" y="32" type="curve"/>
      <point x="482" y="27"/>
      <point x="617" y="72"/>
      <point x="614" y="215" type="curve"/>
      <point x="610" y="382"/>
      <point x="436" y="395"/>
      <point x="243" y="395" type="curve"/>
      <point x="243" y="376"/>
      <point x="243" y="395"/>
      <point x="243" y="376" type="curve"/>
      <point x="424" y="376"/>
      <point x="586" y="371"/>
      <point x="590" y="214" type="curve"/>
      <point x="593" y="86"/>
      <point x="469" y="50"/>
      <point x="319" y="53" type="curve"/>
      <point x="229" y="53"/>
      <point x="147" y="79"/>
      <point x="79" y="136" type="curve"/>
    </contour>
    <contour>
      <point x="114" y="641"/>
      <point x="100" y="659"/>
      <point x="114" y="641" type="curve"/>
      <point x="188" y="681"/>
      <point x="248" y="700"/>
      <point x="332" y="700" type="curve"/>
      <point x="452" y="700"/>
      <point x="549" y="658"/>
      <point x="548" y="550" type="curve"/>
      <point x="546" y="412"/>
      <point x="403" y="399"/>
      <point x="243" y="399" type="curve"/>
      <point x="243" y="379"/>
      <point x="243" y="399"/>
      <point x="243" y="379" type="curve"/>
      <point x="419" y="379"/>
      <point x="572" y="401"/>
      <point x="572" y="553" type="curve"/>
      <point x="572" y="673"/>
      <point x="467" y="722"/>
      <point x="335" y="722" type="curve"/>
      <point x="244" y="722"/>
      <point x="180" y="703"/>
      <point x="100" y="659" type="curve"/>
    </contour>
    <contour>
      <point x="1260" y="22"/>
      <point x="1260" y="0"/>
      <point x="1260" y="22" type="curve"/>
      <point x="1260" y="22"/>
      <point x="1260" y="22"/>
      <point x="1260" y="22" type="curve"/>
      <point x="1260" y="0"/>
      <point x="1260" y="22"/>
      <point x="1260" y="0" type="curve"/>
      <point x="1260" y="0"/>
      <point x="1260" y="0"/>
      <point x="1260" y="0" type="curve"/>
    </contour>
    <contour>
      <point x="1260" y="0"/>
      <point x="1260" y="22"/>
      <point x="1260" y="0" type="curve"/>
      <point x="1260" y="0"/>
      <point x="1260" y="0"/>
      <point x="1260" y="0" type="curve"/>
      <point x="1260" y="22"/>
      <point x="1260" y="0"/>
      <point x="1260" y="22" type="curve"/>
      <point x="1260" y="22"/>
      <point x="1260" y="22"/>
      <point x="1260" y="22" type="curve"/>
    </contour>
    <contour>
      <point x="892" y="22"/>
      <point x="892" y="0"/>
      <point x="892" y="22" type="curve"/>
      <point x="892" y="22"/>
      <point x="892" y="22"/>
      <point x="892" y="22" type="curve"/>
      <point x="892" y="0"/>
      <point x="892" y="22"/>
      <point x="892" y="0" type="curve"/>
      <point x="892" y="0"/>
      <point x="892" y="0"/>
      <point x="892" y="0" type="curve"/>
    </contour>
    <contour>
      <point x="892" y="0"/>
      <point x="892" y="22"/>
      <point x="892" y="0" type="curve"/>
      <point x="892" y="0"/>
      <point x="892" y="0"/>
      <point x="892" y="0" type="curve"/>
      <point x="892" y="22"/>
      <point x="892" y="0"/>
      <point x="892" y="22" type="curve"/>
      <point x="892" y="22"/>
      <point x="892" y="22"/>
      <point x="892" y="22" type="curve"/>
    </contour>
    <contour>
      <point x="1246" y="712"/>
      <point x="1270" y="712"/>
      <point x="1246" y="712" type="curve"/>
      <point x="1246" y="475"/>
      <point x="1246" y="237"/>
      <point x="1246" y="0" type="curve"/>
      <point x="1270" y="0"/>
      <point x="1246" y="0"/>
      <point x="1270" y="0" type="curve"/>
      <point x="1270" y="237"/>
      <point x="1270" y="475"/>
      <point x="1270" y="712" type="curve"/>
    </contour>
    <contour>
      <point x="1449" y="722"/>
      <point x="1449" y="700"/>
      <point x="1449" y="722" type="curve"/>
      <point x="1195" y="722"/>
      <point x="940" y="722"/>
      <point x="685" y="722" type="curve"/>
      <point x="685" y="700"/>
      <point x="685" y="722"/>
      <point x="685" y="700" type="curve"/>
      <point x="940" y="700"/>
      <point x="1195" y="700"/>
      <point x="1449" y="700" type="curve"/>
    </contour>
    <contour>
      <point x="878" y="712"/>
      <point x="903" y="712"/>
      <point x="878" y="712" type="curve"/>
      <point x="878" y="475"/>
      <point x="878" y="237"/>
      <point x="878" y="0" type="curve"/>
      <point x="903" y="0"/>
      <point x="878" y="0"/>
      <point x="903" y="0" type="curve"/>
      <point x="903" y="237"/>
      <point x="903" y="475"/>
      <point x="903" y="712" type="curve"/>
    </contour>
  </outline>
</glyph>
<glyph name="khadeva" format="1">
  <advance width="1414"/>
  <unicode hex="0916"/>
  <outline>
    <contour>
      <point x="1124" y="0"/>
      <point x="1124" y="22"/>
      <point x="1124" y="0" type="curve"/>
      <point x="1124" y="0"/>
      <point x="1124" y="0"/>
      <point x="1124" y="0" type="curve"/>
      <point x="1124" y="22"/>
      <point x="1124" y="0"/>
      <point x="1124" y="22" type="curve"/>
      <point x="1124" y="22"/>
      <point x="1124" y="22"/>
      <point x="1124" y="22" type="curve"/>
    </contour>
    <contour>
      <point x="1112" y="710"/>
      <point x="1136" y="710"/>
      <point x="1112" y="710" type="curve"/>
      <point x="1112" y="473"/>
      <point x="1112" y="237"/>
      <point x="1112" y="0" type="curve"/>
      <point x="1136" y="0"/>
      <point x="1112" y="0"/>
      <point x="1136" y="0" type="curve"/>
      <point x="1136" y="237"/>
      <point x="1136" y="473"/>
      <point x="1136" y="710" type="curve"/>
    </contour>
    <contour>
      <point x="60" y="700"/>
      <point x="60" y="722"/>
      <point x="60" y="700" type="curve"/>
      <point x="491" y="700"/>
      <point x="922" y="700"/>
      <point x="1353" y="700" type="curve"/>
      <point x="1353" y="722"/>
      <point x="1353" y="700"/>
      <point x="1353" y="722" type="curve"/>
      <point x="922" y="722"/>
      <point x="491" y="722"/>
      <point x="60" y="722" type="curve"/>
    </contour>
    <contour>
      <point x="1126" y="478"/>
      <point x="1115" y="468"/>
      <point x="1126" y="478" type="curve"/>
      <point x="1073" y="533"/>
      <point x="1007" y="553"/>
      <point x="931" y="553" type="curve"/>
      <point x="822" y="553"/>
      <point x="746" y="505"/>
      <point x="746" y="402" type="curve"/>
      <point x="746" y="302"/>
      <point x="827" y="256"/>
      <point x="932" y="256" type="curve"/>
      <point x="1009" y="256"/>
      <point x="1077" y="277"/>
      <point x="1126" y="333" type="curve"/>
      <point x="1115" y="343"/>
      <point x="1126" y="333"/>
      <point x="1115" y="343" type="curve"/>
      <point x="1066" y="294"/>
      <point x="1003" y="278"/>
      <point x="932" y="278" type="curve"/>
      <point x="842" y="278"/>
      <point x="769" y="317"/>
      <point x="769" y="402" type="curve"/>
      <point x="769" y="487"/>
      <point x="840" y="532"/>
      <point x="931" y="532" type="curve"/>
      <point x="1001" y="532"/>
      <point x="1062" y="519"/>
      <point x="1115" y="468" type="curve"/>
    </contour>
    <contour>
      <point x="1120" y="159"/>
      <point x="1129" y="143"/>
      <point x="1120" y="159" type="curve"/>
      <point x="982" y="97"/>
      <point x="866" y="65"/>
      <point x="711" y="65" type="curve"/>
      <point x="413" y="65"/>
      <point x="185" y="215"/>
      <point x="185" y="494" type="curve"/>
      <point x="165" y="491"/>
      <point x="185" y="494"/>
      <point x="165" y="491" type="curve"/>
      <point x="165" y="201"/>
      <point x="401" y="44"/>
      <point x="710" y="44" type="curve"/>
      <point x="870" y="44"/>
      <point x="992" y="80"/>
      <point x="1129" y="143" type="curve"/>
    </contour>
    <contour>
      <point x="377" y="706"/>
      <point x="391" y="719"/>
      <point x="377" y="706" type="curve"/>
      <point x="449" y="653"/>
      <point x="507" y="600"/>
      <point x="507" y="513" type="curve"/>
      <point x="507" y="431"/>
      <point x="444" y="382"/>
      <point x="360" y="382" type="curve"/>
      <point x="276" y="382"/>
      <point x="211" y="417"/>
      <point x="185" y="494" type="curve"/>
      <point x="165" y="491"/>
      <point x="185" y="494"/>
      <point x="165" y="491" type="curve"/>
      <point x="195" y="405"/>
      <point x="266" y="361"/>
      <point x="359" y="361" type="curve"/>
      <point x="455" y="361"/>
      <point x="526" y="420"/>
      <point x="526" y="514" type="curve"/>
      <point x="526" y="606"/>
      <point x="467" y="663"/>
      <point x="391" y="719" type="curve"/>
    </contour>
  </outline>
</glyph>
<glyph name="tadeva" format="1">
  <advance width="1008"/>
  <unicode hex="0924"/>
  <outline>
    <contour>
      <point x="455" y="18"/>
      <point x="440" y="1"/>
      <point x="455" y="18" type="curve"/>
      <point x="325" y="98"/>
      <point x="204" y="157"/>
      <point x="204" y="307" type="curve"/>
      <point x="204" y="420"/>
      <point x="316" y="447"/>
      <point x="446" y="447" type="curve"/>
      <point x="551" y="447"/>
      <point x="657" y="447"/>
      <point x="762" y="447" type="curve"/>
      <point x="762" y="469"/>
      <point x="762" y="447"/>
      <point x="762" y="469" type="curve"/>
      <point x="656" y="469"/>
      <point x="551" y="469"/>
      <point x="445" y="469" type="curve"/>
      <point x="301" y="469"/>
      <point x="179" y="434"/>
      <point x="179" y="307" type="curve"/>
      <point x="179" y="150"/>
      <point x="299" y="81"/>
      <point x="440" y="1" type="curve"/>
    </contour>
    <contour>
      <point x="763" y="0"/>
      <point x="763" y="22"/>
      <point x="763" y="0" type="curve"/>
      <point x="763" y="0"/>
      <point x="763" y="0"/>
      <point x="763" y="0" type="curve"/>
      <point x="763" y="22"/>
      <point x="763" y="0"/>
      <point x="763" y="22" type="curve"/>
      <point x="763" y="22"/>
      <point x="763" y="22"/>
      <point x="763" y="22" type="curve"/>
    </contour>
    <contour>
      <point x="773" y="0"/>
      <point x="749" y="0"/>
      <point x="773" y="0" type="curve"/>
      <point x="773" y="237"/>
      <point x="773" y="473"/>
      <point x="773" y="710" type="curve"/>
      <point x="749" y="710"/>
      <point x="773" y="710"/>
      <point x="749" y="710" type="curve"/>
      <point x="749" y="473"/>
      <point x="749" y="237"/>
      <point x="749" y="0" type="curve"/>
    </contour>
    <contour>
      <point x="60" y="700"/>
      <point x="60" y="722"/>
      <point x="60" y="700" type="curve"/>
      <point x="356" y="700"/>
      <point x="652" y="700"/>
      <point x="948" y="700" type="curve"/>
      <point x="948" y="722"/>
      <point x="948" y="700"/>
      <point x="948" y="722" type="curve"/>
      <point x="652" y="722"/>
      <point x="356" y="722"/>
      <point x="60" y="722" type="curve"/>
    </contour>
  </outline>
</glyph>
<glyph name="thadeva" format="1">
  <advance width="973"/>
  <unicode hex="0925"/>
  <outline>
    <contour>
      <point x="711" y="0"/>
      <point x="711" y="22"/>
      <point x="711" y="0" type="curve"/>
      <point x="711" y="0"/>
      <point x="711" y="0"/>
      <point x="711" y="0" type="curve"/>
      <point x="711" y="22"/>
      <point x="711" y="0"/>
      <point x="711" y="22" type="curve"/>
      <point x="711" y="22"/>
      <point x="711" y="22"/>
      <point x="711" y="22" type="curve"/>
    </contour>
    <contour>
      <point x="711" y="22"/>
      <point x="711" y="0"/>
      <point x="711" y="22" type="curve"/>
      <point x="711" y="22"/>
      <point x="711" y="22"/>
      <point x="711" y="22" type="curve"/>
      <point x="711" y="0"/>
      <point x="711" y="22"/>
      <point x="711" y="0" type="curve"/>
      <point x="711" y="0"/>
      <point x="711" y="0"/>
      <point x="711" y="0" type="curve"/>
    </contour>
    <contour>
      <point x="695" y="700"/>
      <point x="695" y="722"/>
      <point x="695" y="700" type="curve"/>
      <point x="767" y="700"/>
      <point x="840" y="700"/>
      <point x="913" y="700" type="curve"/>
      <point x="913" y="722"/>
      <point x="913" y="700"/>
      <point x="913" y="722" type="curve"/>
      <point x="840" y="722"/>
      <point x="767" y="722"/>
      <point x="695" y="722" type="curve"/>
    </contour>
    <contour>
      <point x="722" y="0"/>
      <point x="697" y="0"/>
      <point x="722" y="0" type="curve"/>
      <point x="722" y="241"/>
      <point x="722" y="481"/>
      <point x="722" y="722" type="curve"/>
      <point x="697" y="722"/>
      <point x="722" y="722"/>
      <point x="697" y="722" type="curve"/>
      <point x="697" y="481"/>
      <point x="697" y="241"/>
      <point x="697" y="0" type="curve"/>
    </contour>
    <contour>
      <point x="199" y="527"/>
      <point x="188" y="509"/>
      <point x="199" y="527" type="curve"/>
      <point x="159" y="546"/>
      <point x="125" y="570"/>
      <point x="125" y="614" type="curve"/>
      <point x="126" y="678"/>
      <point x="190" y="700"/>
      <point x="263" y="700" type="curve"/>
      <point x="345" y="700"/>
      <point x="408" y="657"/>
      <point x="410" y="580" type="curve"/>
      <point x="411" y="428"/>
      <point x="244" y="401"/>
      <point x="67" y="401" type="curve"/>
      <point x="60" y="401"/>
      <point x="67" y="401"/>
      <point x="60" y="401" type="curve"/>
      <point x="60" y="394"/>
      <point x="60" y="401"/>
      <point x="60" y="394" type="curve"/>
      <point x="60" y="233"/>
      <point x="204" y="150"/>
      <point x="379" y="151" type="curve"/>
      <point x="518" y="151"/>
      <point x="634" y="181"/>
      <point x="716" y="293" type="curve"/>
      <point x="701" y="300"/>
      <point x="716" y="293"/>
      <point x="701" y="300" type="curve"/>
      <point x="619" y="201"/>
      <point x="511" y="171"/>
      <point x="382" y="172" type="curve"/>
      <point x="218" y="173"/>
      <point x="83" y="246"/>
      <point x="83" y="394" type="curve"/>
      <point x="80" y="391"/>
      <point x="77" y="387"/>
      <point x="75" y="384" type="curve"/>
      <point x="72" y="382"/>
      <point x="70" y="378"/>
      <point x="67" y="376" type="curve"/>
      <point x="257" y="376"/>
      <point x="432" y="415"/>
      <point x="432" y="580" type="curve"/>
      <point x="431" y="670"/>
      <point x="359" y="722"/>
      <point x="264" y="722" type="curve"/>
      <point x="177" y="722"/>
      <point x="102" y="691"/>
      <point x="101" y="611" type="curve"/>
      <point x="101" y="559"/>
      <point x="139" y="532"/>
      <point x="188" y="509" type="curve"/>
    </contour>
  </outline>
</glyph>
<glyph name="bhadeva" format="1">
  <advance width="1093"/>
  <unicode hex="092D"/>
  <outline>
    <contour>
      <point x="831" y="22"/>
      <point x="831" y="0"/>
      <point x="831" y="22" type="curve"/>
      <point x="831" y="22"/>
      <point x="831" y="22"/>
      <point x="831" y="22" type="curve"/>
      <point x="831" y="0"/>
      <point x="831" y="22"/>
      <point x="831" y="0" type="curve"/>
      <point x="831" y="0"/>
      <point x="831" y="0"/>
      <point x="831" y="0" type="curve"/>
    </contour>
    <contour>
      <point x="831" y="0"/>
      <point x="831" y="22"/>
      <point x="831" y="0" type="curve"/>
      <point x="831" y="0"/>
      <point x="831" y="0"/>
      <point x="831" y="0" type="curve"/>
      <point x="831" y="22"/>
      <point x="831" y="0"/>
      <point x="831" y="22" type="curve"/>
      <point x="831" y="22"/>
      <point x="831" y="22"/>
      <point x="831" y="22" type="curve"/>
    </contour>
    <contour>
      <point x="840" y="0"/>
      <point x="816" y="0"/>
      <point x="840" y="0" type="curve"/>
      <point x="840" y="237"/>
      <point x="840" y="473"/>
      <point x="840" y="710" type="curve"/>
      <point x="816" y="710"/>
      <point x="840" y="710"/>
      <point x="816" y="710" type="curve"/>
      <point x="816" y="473"/>
      <point x="816" y="237"/>
      <point x="816" y="0" type="curve"/>
    </contour>
    <contour>
      <point x="610" y="700"/>
      <point x="610" y="722"/>
      <point x="610" y="700" type="curve"/>
      <point x="750" y="700"/>
      <point x="891" y="700"/>
      <point x="1032" y="700" type="curve"/>
      <point x="1032" y="722"/>
      <point x="1032" y="700"/>
      <point x="1032" y="722" type="curve"/>
      <point x="891" y="722"/>
      <point x="750" y="722"/>
      <point x="610" y="722" type="curve"/>
    </contour>
    <contour>
      <point x="125" y="528"/>
      <point x="112" y="514"/>
      <point x="125" y="528" type="curve"/>
      <point x="100" y="546"/>
      <point x="82" y="571"/>
      <point x="82" y="606" type="curve"/>
      <point x="84" y="679"/>
      <point x="149" y="700"/>
      <point x="230" y="700" type="curve"/>
      <point x="321" y="700"/>
      <point x="381" y="674"/>
      <point x="381" y="591" type="curve"/>
      <point x="381" y="497"/>
      <point x="381" y="402"/>
      <point x="381" y="307" type="curve"/>
      <point x="381" y="307"/>
      <point x="380" y="298"/>
      <point x="380" y="298" type="curve"/>
      <point x="380" y="298"/>
      <point x="382" y="304"/>
      <point x="382" y="304" type="curve"/>
      <point x="382" y="304"/>
      <point x="381" y="301"/>
      <point x="381" y="301" type="curve"/>
      <point x="532" y="301"/>
      <point x="683" y="301"/>
      <point x="834" y="301" type="curve"/>
      <point x="834" y="323"/>
      <point x="834" y="301"/>
      <point x="834" y="323" type="curve"/>
      <point x="683" y="323"/>
      <point x="531" y="323"/>
      <point x="380" y="323" type="curve"/>
      <point x="358" y="323"/>
      <point x="349" y="311"/>
      <point x="349" y="301" type="curve"/>
      <point x="349" y="287"/>
      <point x="356" y="276"/>
      <point x="379" y="276" type="curve"/>
      <point x="399" y="276"/>
      <point x="403" y="286"/>
      <point x="403" y="307" type="curve"/>
      <point x="403" y="402"/>
      <point x="403" y="497"/>
      <point x="403" y="591" type="curve"/>
      <point x="403" y="687"/>
      <point x="336" y="722"/>
      <point x="231" y="722" type="curve"/>
      <point x="137" y="722"/>
      <point x="62" y="691"/>
      <point x="60" y="605" type="curve"/>
      <point x="60" y="562"/>
      <point x="81" y="535"/>
      <point x="112" y="514" type="curve"/>
    </contour>
  </outline>
</glyph>
<glyph name="ssadeva" format="1">
  <advance width="924"/>
  <unicode hex="0937"/>
  <outline>
    <contour>
      <point x="60" y="700"/>
      <point x="60" y="722"/>
      <point x="60" y="700" type="curve"/>
      <point x="328" y="700"/>
      <point x="596" y="700"/>
      <point x="865" y="700" type="curve"/>
      <point x="865" y="722"/>
      <point x="865" y="700"/>
      <point x="865" y="722" type="curve"/>
      <point x="596" y="722"/>
      <point x="328" y="722"/>
      <point x="60" y="722" type="curve"/>
    </contour>
    <contour>
      <point x="663" y="22"/>
      <point x="663" y="0"/>
      <point x="663" y="22" type="curve"/>
      <point x="663" y="22"/>
      <point x="663" y="22"/>
      <point x="663" y="22" type="curve"/>
      <point x="663" y="0"/>
      <point x="663" y="22"/>
      <point x="663" y="0" type="curve"/>
      <point x="663" y="0"/>
      <point x="663" y="0"/>
      <point x="663" y="0" type="curve"/>
    </contour>
    <contour>
      <point x="663" y="0"/>
      <point x="663" y="22"/>
      <point x="663" y="0" type="curve"/>
      <point x="663" y="0"/>
      <point x="663" y="0"/>
      <point x="663" y="0" type="curve"/>
      <point x="663" y="22"/>
      <point x="663" y="0"/>
      <point x="663" y="22" type="curve"/>
      <point x="663" y="22"/>
      <point x="663" y="22"/>
      <point x="663" y="22" type="curve"/>
    </contour>
    <contour>
      <point x="189" y="700"/>
      <point x="205" y="714"/>
      <point x="189" y="700" type="curve"/>
      <point x="344" y="579"/>
      <point x="499" y="458"/>
      <point x="654" y="337" type="curve"/>
      <point x="670" y="355"/>
      <point x="654" y="337"/>
      <point x="670" y="355" type="curve"/>
      <point x="515" y="474"/>
      <point x="360" y="594"/>
      <point x="205" y="714" type="curve"/>
    </contour>
    <contour>
      <point x="657" y="369"/>
      <point x="674" y="361"/>
      <point x="657" y="369" type="curve"/>
      <point x="604" y="279"/>
      <point x="522" y="260"/>
      <point x="416" y="260" type="curve"/>
      <point x="295" y="260"/>
      <point x="207" y="314"/>
      <point x="207" y="424" type="curve"/>
      <point x="207" y="519"/>
      <point x="207" y="614"/>
      <point x="207" y="709" type="curve"/>
      <point x="183" y="709"/>
      <point x="207" y="709"/>
      <point x="183" y="709" type="curve"/>
      <point x="183" y="615"/>
      <point x="183" y="521"/>
      <point x="183" y="427" type="curve"/>
      <point x="183" y="302"/>
      <point x="282" y="237"/>
      <point x="415" y="237" type="curve"/>
      <point x="529" y="237"/>
      <point x="619" y="262"/>
      <point x="674" y="361" type="curve"/>
    </contour>
    <contour>
      <point x="673" y="0"/>
      <point x="649" y="0"/>
      <point x="673" y="0" type="curve"/>
      <point x="673" y="237"/>
      <point x="673" y="473"/>
      <point x="673" y="710" type="curve"/>
      <point x="649" y="710"/>
      <point x="673" y="710"/>
      <point x="649" y="710" type="curve"/>
      <point x="649" y="473"/>
      <point x="649" y="237"/>
      <point x="649" y="0" type="curve"/>
    </contour>
  </outline>
</glyph>
<glyph name="ddhadeva_viramadeva_ddhadeva" format="1">
  <advance width="1013"/>
  <unicode hex="E001"/>
  <outline>
    <contour>
      <point x="650" y="203"/>
      <point x="674" y="203"/>
      <point x="650" y="203" type="curve"/>
      <point x="650" y="144"/>
      <point x="650" y="85"/>
      <point x="650" y="26" type="curve"/>
      <point x="654" y="28"/>
      <point x="657" y="31"/>
      <point x="661" y="34" type="curve"/>
      <point x="665" y="37"/>
      <point x="668" y="41"/>
      <point x="672" y="44" type="curve"/>
      <point x="618" y="44"/>
      <point x="565" y="44"/>
      <point x="512" y="44" type="curve"/>
      <point x="338" y="44"/>
      <point x="194" y="21"/>
      <point x="194" y="-130" type="curve"/>
      <point x="194" y="-306"/>
      <point x="364" y="-320"/>
      <point x="569" y="-320" type="curve"/>
      <point x="693" y="-320"/>
      <point x="800" y="-322"/>
      <point x="800" y="-215" type="curve"/>
      <point x="800" y="-144"/>
      <point x="744" y="-119"/>
      <point x="666" y="-119" type="curve"/>
      <point x="587" y="-119"/>
      <point x="530" y="-144"/>
      <point x="530" y="-216" type="curve"/>
      <point x="530" y="-286"/>
      <point x="583" y="-306"/>
      <point x="661" y="-314" type="curve"/>
      <point x="664" y="-300"/>
      <point x="661" y="-314"/>
      <point x="664" y="-300" type="curve"/>
      <point x="599" y="-287"/>
      <point x="554" y="-275"/>
      <point x="554" y="-215" type="curve"/>
      <point x="554" y="-158"/>
      <point x="601" y="-138"/>
      <point x="665" y="-138" type="curve"/>
      <point x="729" y="-138"/>
      <point x="776" y="-158"/>
      <point x="776" y="-216" type="curve"/>
      <point x="776" y="-308"/>
      <point x="679" y="-303"/>
      <point x="571" y="-303" type="curve"/>
      <point x="380" y="-303"/>
      <point x="218" y="-294"/>
      <point x="218" y="-130" type="curve"/>
      <point x="218" y="8"/>
      <point x="352" y="21"/>
      <point x="512" y="21" type="curve"/>
      <point x="565" y="21"/>
      <point x="618" y="21"/>
      <point x="672" y="21" type="curve"/>
      <point x="674" y="21"/>
      <point x="672" y="21"/>
      <point x="674" y="21" type="curve"/>
      <point x="674" y="26"/>
      <point x="674" y="21"/>
      <point x="674" y="26" type="curve"/>
      <point x="674" y="85"/>
      <point x="674" y="144"/>
      <point x="674" y="203" type="curve"/>
    </contour>
    <contour>
      <point x="60" y="700"/>
      <point x="60" y="722"/>
      <point x="60" y="700" type="curve"/>
      <point x="357" y="700"/>
      <point x="655" y="700"/>
      <point x="952" y="700" type="curve"/>
      <point x="952" y="722"/>
      <point x="952" y="700"/>
      <point x="952" y="722" type="curve"/>
      <point x="655" y="722"/>
      <point x="357" y="722"/>
      <point x="60" y="722" type="curve"/>
    </contour>
    <contour>
      <point x="650" y="710"/>
      <point x="674" y="710"/>
      <point x="650" y="710" type="curve"/>
      <point x="650" y="646"/>
      <point x="650" y="581"/>
      <point x="650" y="517" type="curve"/>
      <point x="654" y="519"/>
      <point x="657" y="522"/>
      <point x="661" y="525" type="curve"/>
      <point x="664" y="528"/>
      <point x="667" y="531"/>
      <point x="670" y="533" type="curve"/>
      <point x="617" y="533"/>
      <point x="564" y="533"/>
      <point x="511" y="533" type="curve"/>
      <point x="338" y="533"/>
      <point x="194" y="519"/>
      <point x="194" y="371" type="curve"/>
      <point x="194" y="196"/>
      <point x="365" y="191"/>
      <point x="569" y="191" type="curve"/>
      <point x="693" y="191"/>
      <point x="801" y="186"/>
      <point x="801" y="292" type="curve"/>
      <point x="801" y="363"/>
      <point x="742" y="387"/>
      <point x="663" y="387" type="curve"/>
      <point x="582" y="387"/>
      <point x="522" y="365"/>
      <point x="522" y="292" type="curve"/>
      <point x="522" y="220"/>
      <point x="575" y="201"/>
      <point x="656" y="196" type="curve"/>
      <point x="661" y="210"/>
      <point x="656" y="196"/>
      <point x="661" y="210" type="curve"/>
      <point x="591" y="221"/>
      <point x="546" y="229"/>
      <point x="546" y="292" type="curve"/>
      <point x="546" y="350"/>
      <point x="598" y="368"/>
      <point x="663" y="368" type="curve"/>
      <point x="727" y="368"/>
      <point x="777" y="349"/>
      <point x="777" y="292" type="curve"/>
      <point x="777" y="199"/>
      <point x="679" y="209"/>
      <point x="571" y="209" type="curve"/>
      <point x="382" y="209"/>
      <point x="218" y="208"/>
      <point x="218" y="371" type="curve"/>
      <point x="218" y="506"/>
      <point x="354" y="511"/>
      <point x="511" y="511" type="curve"/>
      <point x="564" y="511"/>
      <point x="617" y="511"/>
      <point x="670" y="511" type="curve"/>
      <point x="674" y="511"/>
      <point x="670" y="511"/>
      <point x="674" y="511" type="curve"/>
      <point x="674" y="517"/>
      <point x="674" y="511"/>
      <point x="674" y="517" type="curve"/>
      <point x="674" y="581"/>
      <point x="674" y="646"/>
      <point x="674" y="710" type="curve"/>
    </contour>
  </outline>
</glyph>
